SplineFontDB: 3.2
FontName: Acuity-Regular
FullName: Acuity
FamilyName: Acuity
Weight: Regular
Copyright: 
Version: Version 1.003
ItalicAngle: 0
UnderlinePosition: -125
UnderlineWidth: 50
Ascent: 800
Descent: 200
InvalidEm: 0
sfntRevision: 0x000100c5
LayerCount: 2
Layer: 0 0 "Back" 1
Layer: 1 0 "Fore" 0
XUID: [1021 897 1909580248 16068]
StyleMap: 0x0040
FSType: 4
OS2Version: 4
OS2_WeightWidthSlopeOnly: 0
OS2_UseTypoMetrics: 1
CreationTime: 1545048223
ModificationTime: 1740586438
PfmFamily: 81
TTFWeight: 400
TTFWidth: 5
LineGap: 100
VLineGap: 0
Panose: 0 0 0 0 0 0 0 0 0 0
OS2TypoAscent: 700
OS2TypoAOffset: 0
OS2TypoDescent: -200
OS2TypoDOffset: 0
OS2TypoLinegap: 100
OS2WinAscent: 700
OS2WinAOffset: 0
OS2WinDescent: 200
OS2WinDOffset: 0
HheadAscent: 700
HheadAOffset: 0
HheadDescent: -200
HheadDOffset: 0
OS2SubXSize: 0
OS2SubYSize: 0
OS2SubXOff: 0
OS2SubYOff: 0
OS2SupXSize: 0
OS2SupYSize: 0
OS2SupXOff: 0
OS2SupYOff: 0
OS2StrikeYSize: 0
OS2StrikeYPos: 0
OS2CapHeight: 700
OS2XHeight: 500
OS2Vendor: '    '
OS2CodePages: 20000013.00000000
OS2UnicodeRanges: a0000227.00000042.00000000.00000000
Lookup: 4 0 1 "'liga' Standard Ligatures in Latin lookup 0" { "'liga' Standard Ligatures in Latin lookup 0 subtable"  } ['liga' ('DFLT' <'dflt' > 'latn' <'dflt' > ) ]
Lookup: 1 0 0 "'ss01' Style Set 1 in Latin lookup 1" { "'ss01' Style Set 1 in Latin lookup 1 subtable"  } ['ss01' ('DFLT' <'dflt' > 'latn' <'dflt' > ) ]
Lookup: 1 0 0 "'ss02' Style Set 2 in Latin lookup 2" { "'ss02' Style Set 2 in Latin lookup 2 subtable"  } ['ss02' ('DFLT' <'dflt' > 'latn' <'dflt' > ) ]
Lookup: 258 8 0 "'kern' Horizontal Kerning in Latin lookup 0" { "'kern' Horizontal Kerning in Latin lookup 0 per glyph data 0"  "'kern' Horizontal Kerning in Latin lookup 0 kerning class 1"  } ['kern' ('DFLT' <'dflt' > 'latn' <'dflt' > ) ]
MarkAttachClasses: 1
DEI: 91125
KernClass2: 18 12 "'kern' Horizontal Kerning in Latin lookup 0 kerning class 1"
 15 A a Aring aring
 10 B b B.ss01
 33 C D G O Q c d g o q Oslash oslash

StartChar: A
Encoding: 65 65 4
Width: 620
GlyphClass: 1
Flags: W
LayerCount: 2
Fore
SplineSet
136 0 m 1
 30 0 l 1
 235 500 l 1
 385 500 l 1
 590 0 l 1
 482 0 l 1
 441 100 l 1
 177 100 l 1
 136 0 l 1
304 410 m 1
 214 190 l 1
 404 190 l 1
 314 410 l 1
 304 410 l 1
EndSplineSet
Validated: 1
EndChar

StartChar: B
Encoding: 66 66 5
Width: 630
GlyphClass: 1
Flags: W
LayerCount: 2
Fore
SplineSet
75 500 m 1
 405 500 l 2
 495 500 555 440 555 350 c 0
 555 311 539 278 510 256 c 1
 551 235 575 198 575 150 c 0
 575 60 515 0 425 0 c 2
 75 0 l 1
 75 500 l 1
175 205 m 1
 175 90 l 1
 425 90 l 2
 455 90 475 110 475 140 c 2
 475 155 l 2
 475 185 455 205 425 205 c 2
 175 205 l 1
175 295 m 1
 405 295 l 2
 435 295 455 315 455 345 c 2
 455 360 l 2
 455 390 435 410 405 410 c 2
 175 410 l 1
 175 295 l 1
EndSplineSet
Validated: 1
Substitution2: "'ss01' Style Set 1 in Latin lookup 1 subtable" B.ss01
EndChar

StartChar: C
Encoding: 67 67 6
Width: 617
GlyphClass: 1
Flags: W
LayerCount: 2
Fore
SplineSet
310 -10 m 0
 160 -10 50 100 50 250 c 0
 50 400 160 510 310 510 c 0
 445 510 547 422 567 295 c 1
 460 295 l 1
 443 366 385 415 310 415 c 0
 220 415 155 345 155 250 c 0
 155 155 220 85 310 85 c 0
 385 85 443 134 460 205 c 1
 567 205 l 1
 547 78 445 -10 310 -10 c 0
EndSplineSet
Validated: 1
Substitution2: "'ss01' Style Set 1 in Latin lookup 1 subtable" C.ss01
EndChar

StartChar: D
Encoding: 68 68 7
Width: 635
GlyphClass: 1
Flags: W
LayerCount: 2
Fore
SplineSet
75 500 m 1
 325 500 l 2
 475 500 585 395 585 250 c 0
 585 106 475 0 325 0 c 2
 75 0 l 1
 75 500 l 1
175 410 m 1
 175 90 l 1
 325 90 l 2
 415 90 480 157 480 250 c 0
 480 342 415 410 325 410 c 2
 175 410 l 1
EndSplineSet
Validated: 1
Substitution2: "'ss01' Style Set 1 in Latin lookup 1 subtable" D.ss01
EndChar

StartChar: E
Encoding: 69 69 8
Width: 625
GlyphClass: 1
Flags: W
LayerCount: 2
Fore
SplineSet
75 500 m 1
 565 500 l 1
 565 410 l 1
 175 410 l 1
 175 295 l 1
 465 295 l 1
 465 205 l 1
 175 205 l 1
 175 90 l 1
 565 90 l 1
 565 0 l 1
 75 0 l 1
 75 500 l 1
EndSplineSet
Validated: 1
Substitution2: "'ss02' Style Set 2 in Latin lookup 2 subtable" E.ss02
Substitution2: "'ss01' Style Set 1 in Latin lookup 1 subtable" E.ss01
EndChar

StartChar: F
Encoding: 70 70 9
Width: 605
GlyphClass: 1
Flags: W
LayerCount: 2
Fore
SplineSet
75 500 m 1
 555 500 l 1
 555 410 l 1
 175 410 l 1
 175 295 l 1
 455 295 l 1
 455 205 l 1
 175 205 l 1
 175 0 l 1
 75 0 l 1
 75 500 l 1
EndSplineSet
Validated: 1
Substitution2: "'ss02' Style Set 2 in Latin lookup 2 subtable" F.ss02
Substitution2: "'ss01' Style Set 1 in Latin lookup 1 subtable" F.ss01
EndChar

StartChar: G
Encoding: 71 71 10
Width: 620
GlyphClass: 1
Flags: W
LayerCount: 2
Fore
SplineSet
50 250 m 0
 50 400 160 510 310 510 c 0
 385 510 450 483 496 437 c 1
 424 365 l 1
 397 396 357 415 310 415 c 0
 220 415 155 345 155 250 c 0
 155 155 220 85 310 85 c 0
 383 85 440 131 459 200 c 1
 310 200 l 1
 310 290 l 1
 567 290 l 1
 569 277 570 264 570 250 c 0
 570 100 460 -10 310 -10 c 0
 160 -10 50 100 50 250 c 0
EndSplineSet
Validated: 1
Substitution2: "'ss01' Style Set 1 in Latin lookup 1 subtable" G.ss01
EndChar

StartChar: H
Encoding: 72 72 11
Width: 650
GlyphClass: 1
Flags: W
LayerCount: 2
Fore
SplineSet
175 0 m 1
 75 0 l 1
 75 500 l 1
 175 500 l 1
 175 295 l 1
 475 295 l 1
 475 500 l 1
 575 500 l 1
 575 0 l 1
 475 0 l 1
 475 205 l 1
 175 205 l 1
 175 0 l 1
EndSplineSet
Validated: 1
EndChar

StartChar: I
Encoding: 73 73 12
Width: 250
GlyphClass: 1
Flags: W
LayerCount: 2
Fore
SplineSet
75 500 m 1
 175 500 l 1
 175 0 l 1
 75 0 l 1
 75 500 l 1
EndSplineSet
Validated: 1
Substitution2: "'ss02' Style Set 2 in Latin lookup 2 subtable" I.ss02
Substitution2: "'ss01' Style Set 1 in Latin lookup 1 subtable" I.ss01
EndChar

StartChar: J
Encoding: 74 74 13
Width: 530
GlyphClass: 1
Flags: W
LayerCount: 2
Fore
SplineSet
55 190 m 1
 155 190 l 1
 155 130 198 85 255 85 c 0
 312 85 355 130 355 190 c 2
 355 500 l 1
 455 500 l 1
 455 190 l 2
 455 75 370 -10 255 -10 c 0
 140 -10 55 75 55 190 c 1
EndSplineSet
Validated: 1
EndChar

StartChar: K
Encoding: 75 75 14
Width: 620
GlyphClass: 1
Flags: W
LayerCount: 2
Fore
SplineSet
175 0 m 1
 75 0 l 1
 75 500 l 1
 175 500 l 1
 175 259 l 1
 444 500 l 1
 586 500 l 1
 353 291 l 1
 586 0 l 1
 464 0 l 1
 282 227 l 1
 175 131 l 1
 175 0 l 1
EndSplineSet
Validated: 1
Substitution2: "'ss01' Style Set 1 in Latin lookup 1 subtable" K.ss01
EndChar

StartChar: L
Encoding: 76 76 15
Width: 515
GlyphClass: 1
Flags: W
LayerCount: 2
Fore
SplineSet
75 500 m 1
 175 500 l 1
 175 90 l 1
 475 90 l 1
 475 0 l 1
 75 0 l 1
 75 500 l 1
EndSplineSet
Validated: 1
Substitution2: "'ss01' Style Set 1 in Latin lookup 1 subtable" L.ss01
EndChar

StartChar: M
Encoding: 77 77 16
Width: 650
GlyphClass: 1
Flags: W
LayerCount: 2
Fore
SplineSet
75 500 m 1
 165 500 l 1
 321 290 l 1
 329 290 l 1
 485 500 l 1
 575 500 l 1
 575 0 l 1
 475 0 l 1
 475 350 l 1
 473 350 l 1
 473 350 463 318 445 294 c 2
 375 200 l 1
 275 200 l 1
 205 294 l 2
 187 318 177 350 177 350 c 1
 175 350 l 1
 175 0 l 1
 75 0 l 1
 75 500 l 1
EndSplineSet
Validated: 1
EndChar

StartChar: N
Encoding: 78 78 17
Width: 650
GlyphClass: 1
Flags: W
LayerCount: 2
Fore
SplineSet
75 0 m 1
 75 500 l 1
 165 500 l 1
 475 155 l 1
 475 500 l 1
 575 500 l 1
 575 0 l 1
 485 0 l 1
 175 345 l 1
 175 0 l 1
 75 0 l 1
EndSplineSet
Validated: 1
EndChar

StartChar: O
Encoding: 79 79 18
Width: 620
GlyphClass: 1
Flags: W
LayerCount: 2
Fore
SplineSet
50 250 m 0
 50 400 160 510 310 510 c 0
 460 510 570 400 570 250 c 0
 570 100 460 -10 310 -10 c 0
 160 -10 50 100 50 250 c 0
155 250 m 0
 155 155 220 85 310 85 c 0
 400 85 465 155 465 250 c 0
 465 345 400 415 310 415 c 0
 220 415 155 345 155 250 c 0
EndSplineSet
Validated: 1
Substitution2: "'ss01' Style Set 1 in Latin lookup 1 subtable" O.ss01
EndChar

StartChar: P
Encoding: 80 80 19
Width: 630
GlyphClass: 1
Flags: W
LayerCount: 2
Fore
SplineSet
75 0 m 1
 75 500 l 1
 435 500 l 2
 525 500 585 440 585 350 c 0
 585 264 525 205 435 205 c 2
 175 205 l 1
 175 0 l 1
 75 0 l 1
175 410 m 1
 175 295 l 1
 435 295 l 2
 465 295 485 315 485 345 c 2
 485 360 l 2
 485 390 465 410 435 410 c 2
 175 410 l 1
EndSplineSet
Validated: 1
EndChar

StartChar: Q
Encoding: 81 81 20
Width: 620
GlyphClass: 1
Flags: W
LayerCount: 2
Fore
SplineSet
310 -10 m 0
 160 -10 50 100 50 250 c 0
 50 400 160 510 310 510 c 0
 460 510 570 400 570 250 c 0
 570 190 552 136 521 93 c 1
 575 39 l 1
 521 -15 l 1
 467 39 l 1
 424 8 370 -10 310 -10 c 0
310 415 m 0
 220 415 155 345 155 250 c 0
 155 155 220 85 310 85 c 0
 342 85 372 94 396 110 c 1
 333 173 l 1
 387 227 l 1
 446 168 l 1
 458 192 465 220 465 250 c 0
 465 345 400 415 310 415 c 0
EndSplineSet
Validated: 1
Substitution2: "'ss01' Style Set 1 in Latin lookup 1 subtable" Q.ss01
EndChar

StartChar: R
Encoding: 82 82 21
Width: 640
GlyphClass: 1
Flags: W
LayerCount: 2
Fore
SplineSet
175 0 m 1
 75 0 l 1
 75 500 l 1
 435 500 l 2
 525 500 585 440 585 350 c 0
 585 270 533 214 454 206 c 1
 461 198 468 189 472 182 c 2
 585 0 l 1
 472 0 l 1
 345 205 l 1
 175 205 l 1
 175 0 l 1
175 410 m 1
 175 295 l 1
 435 295 l 2
 465 295 485 315 485 345 c 2
 485 360 l 2
 485 390 465 410 435 410 c 2
 175 410 l 1
EndSplineSet
Validated: 1
EndChar

StartChar: S
Encoding: 83 83 22
Width: 580
GlyphClass: 1
Flags: W
LayerCount: 2
Fore
SplineSet
50 150 m 1
 150 150 l 1
 150 108 206 80 290 80 c 0
 381 80 430 106 430 153 c 0
 430 193 386 210 286 210 c 0
 128 210 60 252 60 353 c 0
 60 455 140 510 290 510 c 0
 428 510 520 446 520 350 c 1
 420 350 l 1
 420 392 368 420 290 420 c 0
 205 420 160 397 160 353 c 0
 160 315 200 300 295 300 c 0
 460 300 530 255 530 153 c 0
 530 47 446 -10 290 -10 c 0
 146 -10 50 54 50 150 c 1
EndSplineSet
Validated: 1
Substitution2: "'ss01' Style Set 1 in Latin lookup 1 subtable" S.ss01
EndChar

StartChar: T
Encoding: 84 84 23
Width: 580
GlyphClass: 1
Flags: W
LayerCount: 2
Fore
SplineSet
40 500 m 1
 540 500 l 1
 540 410 l 1
 340 410 l 1
 340 0 l 1
 240 0 l 1
 240 410 l 1
 40 410 l 1
 40 500 l 1
EndSplineSet
Validated: 1
EndChar

StartChar: U
Encoding: 85 85 24
Width: 630
GlyphClass: 1
Flags: W
LayerCount: 2
Fore
SplineSet
75 240 m 2
 75 500 l 1
 175 500 l 1
 175 240 l 2
 175 150 234 85 315 85 c 0
 396 85 455 150 455 240 c 2
 455 500 l 1
 555 500 l 1
 555 240 l 2
 555 96 453 -10 315 -10 c 0
 177 -10 75 96 75 240 c 2
EndSplineSet
Validated: 1
Substitution2: "'ss01' Style Set 1 in Latin lookup 1 subtable" U.ss01
EndChar

StartChar: V
Encoding: 86 86 25
Width: 620
GlyphClass: 1
Flags: W
LayerCount: 2
Fore
SplineSet
30 500 m 1
 138 500 l 1
 306 90 l 1
 316 90 l 1
 484 500 l 1
 590 500 l 1
 385 0 l 1
 235 0 l 1
 30 500 l 1
EndSplineSet
Validated: 1
EndChar

StartChar: W
Encoding: 87 87 26
Width: 670
GlyphClass: 1
Flags: W
LayerCount: 2
Fore
SplineSet
40 500 m 1
 138 500 l 1
 181 130 l 1
 182 130 l 1
 182 130 193 190 219 251 c 2
 285 400 l 1
 385 400 l 1
 450 251 l 2
 477 191 488 130 488 130 c 1
 489 130 l 1
 532 500 l 1
 630 500 l 1
 570 0 l 1
 465 0 l 1
 376 201 l 2
 345 270 336 310 336 310 c 1
 334 310 l 1
 334 310 325 270 294 201 c 2
 205 0 l 1
 100 0 l 1
 40 500 l 1
EndSplineSet
Validated: 1
EndChar

StartChar: X
Encoding: 88 88 27
Width: 601
GlyphClass: 1
Flags: W
LayerCount: 2
Fore
SplineSet
20 0 m 1
 235 259 l 1
 35 500 l 1
 163 500 l 1
 302 333 l 1
 441 500 l 1
 566 500 l 1
 363 261 l 1
 581 0 l 1
 450 0 l 1
 295 187 l 1
 142 0 l 1
 20 0 l 1
EndSplineSet
Validated: 1
EndChar

StartChar: Y
Encoding: 89 89 28
Width: 560
GlyphClass: 1
Flags: W
LayerCount: 2
Fore
SplineSet
230 175 m 1
 20 500 l 1
 135 500 l 1
 233 350 l 2
 265 300 279 260 279 260 c 1
 281 260 l 1
 281 260 295 300 327 350 c 2
 424 500 l 1
 540 500 l 1
 330 175 l 1
 330 0 l 1
 230 0 l 1
 230 175 l 1
EndSplineSet
Validated: 1
EndChar

StartChar: Z
Encoding: 90 90 29
Width: 610
GlyphClass: 1
Flags: W
LayerCount: 2
Fore
SplineSet
60 0 m 1
 60 80 l 1
 394 410 l 1
 70 410 l 1
 70 500 l 1
 540 500 l 1
 540 420 l 1
 205 90 l 1
 550 90 l 1
 550 0 l 1
 60 0 l 1
EndSplineSet
Validated: 1
EndChar

StartChar: zero
Encoding: 48 48 30
Width: 600
GlyphClass: 1
Flags: W
LayerCount: 2
Fore
SplineSet
65 250 m 0
 65 417 149 510 300 510 c 0
 452 510 535 418 535 250 c 0
 535 83 451 -10 300 -10 c 0
 148 -10 65 82 65 250 c 0
170 250 m 0
 170 142 215 85 300 85 c 0
 385 85 430 143 430 250 c 0
 430 358 385 415 300 415 c 0
 215 415 170 358 170 250 c 0
EndSplineSet
Validated: 1
Substitution2: "'ss01' Style Set 1 in Latin lookup 1 subtable" zero.ss01
EndChar

StartChar: one
Encoding: 49 49 31
Width: 550
GlyphClass: 1
Flags: W
LayerCount: 2
Fore
SplineSet
75 0 m 1
 75 90 l 1
 225 90 l 1
 225 410 l 1
 85 410 l 1
 85 500 l 1
 325 500 l 1
 325 90 l 1
 475 90 l 1
 475 0 l 1
 75 0 l 1
EndSplineSet
Validated: 1
Substitution2: "'ss01' Style Set 1 in Latin lookup 1 subtable" one.ss01
EndChar

StartChar: two
Encoding: 50 50 32
Width: 550
GlyphClass: 1
Flags: W
LayerCount: 2
Fore
SplineSet
480 0 m 1
 60 0 l 1
 60 70 l 2
 60 152 133 227 263 278 c 0
 342 309 365 326 365 355 c 0
 365 394 332 415 270 415 c 0
 208 415 175 384 175 345 c 1
 70 345 l 1
 70 445 141 510 270 510 c 0
 393 510 470 450 470 355 c 0
 470 283 426 241 301 192 c 0
 226 163 175 128 175 90 c 1
 480 90 l 1
 480 0 l 1
EndSplineSet
Validated: 1
Substitution2: "'ss01' Style Set 1 in Latin lookup 1 subtable" two.ss01
EndChar

StartChar: three
Encoding: 51 51 33
Width: 550
GlyphClass: 1
Flags: W
LayerCount: 2
Fore
SplineSet
200 295 m 1
 275 295 l 2
 334 295 365 316 365 355 c 0
 365 394 332 415 270 415 c 0
 208 415 175 394 175 355 c 1
 70 355 l 1
 70 455 141 510 270 510 c 0
 399 510 470 455 470 355 c 0
 470 310 452 276 417 253 c 1
 462 231 485 194 485 145 c 0
 485 45 410 -10 275 -10 c 0
 139 -10 65 45 65 145 c 1
 170 145 l 1
 170 106 206 85 275 85 c 0
 343 85 380 106 380 145 c 0
 380 184 344 205 275 205 c 2
 200 205 l 1
 200 295 l 1
EndSplineSet
Validated: 1
Substitution2: "'ss01' Style Set 1 in Latin lookup 1 subtable" three.ss01
EndChar

StartChar: four
Encoding: 52 52 34
Width: 551
GlyphClass: 1
Flags: W
LayerCount: 2
Fore
SplineSet
30 180 m 1
 320 500 l 1
 410 500 l 1
 410 190 l 1
 501 190 l 1
 501 100 l 1
 410 100 l 1
 410 0 l 1
 310 0 l 1
 310 100 l 1
 30 100 l 1
 30 180 l 1
310 359 m 1
 157 190 l 1
 310 190 l 1
 310 359 l 1
EndSplineSet
Validated: 1
Substitution2: "'ss01' Style Set 1 in Latin lookup 1 subtable" four.ss01
EndChar

StartChar: five
Encoding: 53 53 35
Width: 550
GlyphClass: 1
Flags: W
LayerCount: 2
Fore
SplineSet
275 -10 m 0
 139 -10 65 45 65 145 c 1
 170 145 l 1
 170 106 206 85 275 85 c 0
 343 85 380 109 380 153 c 0
 380 197 344 220 275 220 c 2
 75 220 l 1
 75 500 l 1
 450 500 l 1
 450 410 l 1
 175 410 l 1
 175 310 l 1
 275 310 l 2
 410 310 485 254 485 153 c 0
 485 48 410 -10 275 -10 c 0
EndSplineSet
Validated: 1
Substitution2: "'ss01' Style Set 1 in Latin lookup 1 subtable" five.ss01
EndChar

StartChar: six
Encoding: 54 54 36
Width: 550
GlyphClass: 1
Flags: W
LayerCount: 2
Fore
SplineSet
50 250 m 0
 50 415 135 510 281 510 c 0
 401 510 480 449 480 355 c 1
 375 355 l 1
 375 391 337 415 281 415 c 0
 204 415 163 370 156 278 c 1
 191 298 239 315 295 315 c 0
 419 315 500 252 500 155 c 0
 500 54 417 -10 285 -10 c 0
 131 -10 50 83 50 250 c 0
277 225 m 0
 230 225 190 205 161 185 c 1
 175 117 215 85 286 85 c 0
 352 85 395 113 395 155 c 0
 395 200 354 225 277 225 c 0
EndSplineSet
Validated: 1
Substitution2: "'ss01' Style Set 1 in Latin lookup 1 subtable" six.ss01
EndChar

StartChar: seven
Encoding: 55 55 37
Width: 515
GlyphClass: 1
Flags: W
LayerCount: 2
Fore
SplineSet
55 500 m 1
 455 500 l 1
 455 420 l 1
 255 0 l 1
 145 0 l 1
 340 410 l 1
 55 410 l 1
 55 500 l 1
EndSplineSet
Validated: 1
Substitution2: "'ss01' Style Set 1 in Latin lookup 1 subtable" seven.ss01
EndChar

StartChar: eight
Encoding: 56 56 38
Width: 550
GlyphClass: 1
Flags: W
LayerCount: 2
Fore
SplineSet
275 -10 m 0
 139 -10 65 45 65 145 c 0
 65 192 93 229 140 253 c 1
 102 277 80 312 80 355 c 0
 80 455 150 510 275 510 c 0
 401 510 470 455 470 355 c 0
 470 312 448 277 410 253 c 1
 457 229 485 192 485 145 c 0
 485 45 410 -10 275 -10 c 0
170 145 m 0
 170 106 206 85 275 85 c 0
 343 85 380 106 380 145 c 0
 380 184 344 205 275 205 c 0
 207 205 170 184 170 145 c 0
275 415 m 0
 216 415 185 394 185 355 c 0
 185 316 216 295 275 295 c 0
 334 295 365 316 365 355 c 0
 365 394 334 415 275 415 c 0
EndSplineSet
Validated: 1
Substitution2: "'ss01' Style Set 1 in Latin lookup 1 subtable" eight.ss01
EndChar

StartChar: nine
Encoding: 57 57 39
Width: 550
GlyphClass: 1
Flags: W
LayerCount: 2
Fore
SplineSet
50 345 m 0
 50 446 133 510 265 510 c 0
 419 510 500 417 500 250 c 0
 500 85 415 -10 269 -10 c 0
 149 -10 50 51 50 145 c 1
 155 145 l 1
 155 109 213 85 270 85 c 0
 346 85 387 130 394 222 c 1
 359 202 311 185 255 185 c 0
 131 185 50 248 50 345 c 0
155 345 m 0
 155 300 196 275 273 275 c 0
 320 275 361 295 389 315 c 1
 375 383 335 415 265 415 c 0
 198 415 155 387 155 345 c 0
EndSplineSet
Validated: 1
Substitution2: "'ss01' Style Set 1 in Latin lookup 1 subtable" nine.ss01
EndChar

StartChar: a
Encoding: 97 97 40
Width: 617
GlyphClass: 1
Flags: HW
LayerCount: 2
Fore
SplineSet
310 -10 m 0
 160 -10 50 100 50 250 c 0
 50 400 160 510 310 510 c 0
 445 510 547 422 567 295 c 1
 460 295 l 1
 443 366 385 415 310 415 c 0
 220 415 155 345 155 250 c 0
 155 155 220 85 310 85 c 0
 385 85 443 134 460 205 c 1
 567 205 l 1
 547 78 445 -10 310 -10 c 0
EndSplineSet
Validated: 1
EndChar

StartChar: b
Encoding: 98 98 41
Width: 617
GlyphClass: 1
Flags: HW
LayerCount: 2
Fore
SplineSet
48 248 m 0
 48 398 158 508 308 508 c 0
 458 508 568 398 568 248 c 0
 568 114 480 12 354 -8 c 1
 354 98 l 1
 424 116 474 174 474 248 c 0
 474 338 404 404 308 404 c 0
 214 404 144 338 144 248 c 0
 144 174 192 116 264 98 c 1
 264 -8 l 1
 136 12 48 114 48 248 c 0
EndSplineSet
Validated: 1
Substitution2: "'ss01' Style Set 1 in Latin lookup 1 subtable" B.ss01
EndChar

StartChar: c
Encoding: 99 99 42
Width: 617
GlyphClass: 1
Flags: HW
LayerCount: 2
Fore
SplineSet
307 510 m 0
 457 510 567 400 567 250 c 0
 567 100 457 -10 307 -10 c 0
 172 -10 70 78 50 205 c 1
 157 205 l 1
 174 134 232 85 307 85 c 0
 397 85 462 155 462 250 c 0
 462 345 397 415 307 415 c 0
 232 415 174 366 157 295 c 1
 50 295 l 1
 70 422 172 510 307 510 c 0
EndSplineSet
Validated: 1
Substitution2: "'ss01' Style Set 1 in Latin lookup 1 subtable" C.ss01
EndChar

StartChar: d
Encoding: 100 100 43
Width: 617
GlyphClass: 1
Flags: HW
LayerCount: 2
Fore
SplineSet
568 252 m 0
 568 102 458 -8 308 -8 c 0
 158 -8 48 102 48 252 c 0
 48 386 136 488 264 508 c 1
 264 402 l 1
 192 384 144 326 144 252 c 0
 144 162 214 96 308 96 c 0
 404 96 474 162 474 252 c 0
 474 326 424 384 354 402 c 1
 354 508 l 1
 480 488 568 386 568 252 c 0
EndSplineSet
Validated: 1
Substitution2: "'ss01' Style Set 1 in Latin lookup 1 subtable" D.ss01
EndChar

StartChar: e
Encoding: 101 101 44
Width: 625
GlyphClass: 1
Flags: HW
LayerCount: 2
Fore
SplineSet
75 500 m 1
 565 500 l 1
 565 410 l 1
 175 410 l 1
 175 295 l 1
 465 295 l 1
 465 205 l 1
 175 205 l 1
 175 90 l 1
 565 90 l 1
 565 0 l 1
 75 0 l 1
 75 500 l 1
EndSplineSet
Validated: 1
Substitution2: "'ss02' Style Set 2 in Latin lookup 2 subtable" E.ss02
Substitution2: "'ss01' Style Set 1 in Latin lookup 1 subtable" E.ss01
EndChar

StartChar: f
Encoding: 102 102 45
Width: 625
GlyphClass: 1
Flags: HW
LayerCount: 2
Fore
SplineSet
570 495 m 1
 570 5 l 1
 480 5 l 1
 480 395 l 1
 365 395 l 1
 365 105 l 1
 275 105 l 1
 275 395 l 1
 160 395 l 1
 160 5 l 1
 70 5 l 1
 70 495 l 1
 570 495 l 1
EndSplineSet
Validated: 1
Substitution2: "'ss02' Style Set 2 in Latin lookup 2 subtable" F.ss02
Substitution2: "'ss01' Style Set 1 in Latin lookup 1 subtable" F.ss01
EndChar

StartChar: g
Encoding: 103 103 46
Width: 625
GlyphClass: 1
Flags: HW
LayerCount: 2
Fore
SplineSet
565 0 m 1
 75 0 l 1
 75 90 l 1
 465 90 l 1
 465 205 l 1
 175 205 l 1
 175 295 l 1
 465 295 l 1
 465 410 l 1
 75 410 l 1
 75 500 l 1
 565 500 l 1
 565 0 l 1
EndSplineSet
Validated: 1
Substitution2: "'ss01' Style Set 1 in Latin lookup 1 subtable" G.ss01
EndChar

StartChar: h
Encoding: 104 104 47
Width: 625
GlyphClass: 1
Flags: HW
LayerCount: 2
Fore
SplineSet
70 5 m 1
 70 495 l 1
 160 495 l 1
 160 105 l 1
 275 105 l 1
 275 395 l 1
 365 395 l 1
 365 105 l 1
 480 105 l 1
 480 495 l 1
 570 495 l 1
 570 5 l 1
 70 5 l 1
EndSplineSet
Validated: 1
EndChar

StartChar: i
Encoding: 105 105 48
Width: 250
GlyphClass: 1
Flags: W
LayerCount: 2
Fore
SplineSet
75 500 m 1
 175 500 l 1
 175 0 l 1
 75 0 l 1
 75 500 l 1
EndSplineSet
Validated: 1
Substitution2: "'ss02' Style Set 2 in Latin lookup 2 subtable" I.ss02
Substitution2: "'ss01' Style Set 1 in Latin lookup 1 subtable" I.ss01
EndChar

StartChar: j
Encoding: 106 106 49
Width: 540
GlyphClass: 1
Flags: W
LayerCount: 2
Fore
SplineSet
65 190 m 1
 165 190 l 1
 165 130 208 85 265 85 c 0
 322 85 365 130 365 190 c 2
 365 500 l 1
 465 500 l 1
 465 190 l 2
 465 75 380 -10 265 -10 c 0
 150 -10 65 75 65 190 c 1
EndSplineSet
Validated: 1
EndChar

StartChar: k
Encoding: 107 107 50
Width: 620
GlyphClass: 1
Flags: W
LayerCount: 2
Fore
SplineSet
175 0 m 1
 75 0 l 1
 75 500 l 1
 175 500 l 1
 175 259 l 1
 444 500 l 1
 586 500 l 1
 353 291 l 1
 586 0 l 1
 464 0 l 1
 282 227 l 1
 175 131 l 1
 175 0 l 1
EndSplineSet
Validated: 1
Substitution2: "'ss01' Style Set 1 in Latin lookup 1 subtable" K.ss01
EndChar

StartChar: l
Encoding: 108 108 51
Width: 515
GlyphClass: 1
Flags: W
LayerCount: 2
Fore
SplineSet
75 500 m 1
 175 500 l 1
 175 90 l 1
 475 90 l 1
 475 0 l 1
 75 0 l 1
 75 500 l 1
EndSplineSet
Validated: 1
Substitution2: "'ss01' Style Set 1 in Latin lookup 1 subtable" L.ss01
EndChar

StartChar: m
Encoding: 109 109 52
Width: 650
GlyphClass: 1
Flags: W
LayerCount: 2
Fore
SplineSet
75 500 m 1
 165 500 l 1
 321 290 l 1
 329 290 l 1
 485 500 l 1
 575 500 l 1
 575 0 l 1
 475 0 l 1
 475 350 l 1
 473 350 l 1
 473 350 463 318 445 294 c 2
 375 200 l 1
 275 200 l 1
 205 294 l 2
 187 318 177 350 177 350 c 1
 175 350 l 1
 175 0 l 1
 75 0 l 1
 75 500 l 1
EndSplineSet
Validated: 1
EndChar

StartChar: n
Encoding: 110 110 53
Width: 650
GlyphClass: 1
Flags: W
LayerCount: 2
Fore
SplineSet
75 0 m 1
 75 500 l 1
 165 500 l 1
 475 155 l 1
 475 500 l 1
 575 500 l 1
 575 0 l 1
 485 0 l 1
 175 345 l 1
 175 0 l 1
 75 0 l 1
EndSplineSet
Validated: 1
EndChar

StartChar: o
Encoding: 111 111 54
Width: 620
GlyphClass: 1
Flags: W
LayerCount: 2
Fore
SplineSet
50 250 m 0
 50 400 160 510 310 510 c 0
 460 510 570 400 570 250 c 0
 570 100 460 -10 310 -10 c 0
 160 -10 50 100 50 250 c 0
155 250 m 0
 155 155 220 85 310 85 c 0
 400 85 465 155 465 250 c 0
 465 345 400 415 310 415 c 0
 220 415 155 345 155 250 c 0
EndSplineSet
Validated: 1
Substitution2: "'ss01' Style Set 1 in Latin lookup 1 subtable" O.ss01
EndChar

StartChar: p
Encoding: 112 112 55
Width: 635
GlyphClass: 1
Flags: W
LayerCount: 2
Fore
SplineSet
75 0 m 1
 75 500 l 1
 435 500 l 2
 525 500 585 440 585 350 c 0
 585 264 525 205 435 205 c 2
 175 205 l 1
 175 0 l 1
 75 0 l 1
175 410 m 1
 175 295 l 1
 435 295 l 2
 465 295 485 315 485 345 c 2
 485 360 l 2
 485 390 465 410 435 410 c 2
 175 410 l 1
EndSplineSet
Validated: 1
EndChar

StartChar: q
Encoding: 113 113 56
Width: 620
GlyphClass: 1
Flags: W
LayerCount: 2
Fore
SplineSet
310 -10 m 0
 160 -10 50 100 50 250 c 0
 50 400 160 510 310 510 c 0
 460 510 570 400 570 250 c 0
 570 190 552 136 521 93 c 1
 575 39 l 1
 521 -15 l 1
 467 39 l 1
 424 8 370 -10 310 -10 c 0
310 415 m 0
 220 415 155 345 155 250 c 0
 155 155 220 85 310 85 c 0
 342 85 372 94 396 110 c 1
 333 173 l 1
 387 227 l 1
 446 168 l 1
 458 192 465 220 465 250 c 0
 465 345 400 415 310 415 c 0
EndSplineSet
Validated: 1
Substitution2: "'ss01' Style Set 1 in Latin lookup 1 subtable" Q.ss01
EndChar

StartChar: r
Encoding: 114 114 57
Width: 640
GlyphClass: 1
Flags: W
LayerCount: 2
Fore
SplineSet
175 0 m 1
 75 0 l 1
 75 500 l 1
 435 500 l 2
 525 500 585 440 585 350 c 0
 585 270 533 214 454 206 c 1
 461 198 468 189 472 182 c 2
 585 0 l 1
 472 0 l 1
 345 205 l 1
 175 205 l 1
 175 0 l 1
175 410 m 1
 175 295 l 1
 435 295 l 2
 465 295 485 315 485 345 c 2
 485 360 l 2
 485 390 465 410 435 410 c 2
 175 410 l 1
EndSplineSet
Validated: 1
EndChar

StartChar: s
Encoding: 115 115 58
Width: 580
GlyphClass: 1
Flags: W
LayerCount: 2
Fore
SplineSet
50 150 m 1
 150 150 l 1
 150 108 206 80 290 80 c 0
 381 80 430 106 430 153 c 0
 430 193 386 210 286 210 c 0
 128 210 60 252 60 353 c 0
 60 455 140 510 290 510 c 0
 428 510 520 446 520 350 c 1
 420 350 l 1
 420 392 368 420 290 420 c 0
 205 420 160 397 160 353 c 0
 160 315 200 300 295 300 c 0
 460 300 530 255 530 153 c 0
 530 47 446 -10 290 -10 c 0
 146 -10 50 54 50 150 c 1
EndSplineSet
Validated: 1
Substitution2: "'ss01' Style Set 1 in Latin lookup 1 subtable" S.ss01
EndChar

StartChar: t
Encoding: 116 116 59
Width: 580
GlyphClass: 1
Flags: W
LayerCount: 2
Fore
SplineSet
40 500 m 1
 540 500 l 1
 540 410 l 1
 340 410 l 1
 340 0 l 1
 240 0 l 1
 240 410 l 1
 40 410 l 1
 40 500 l 1
EndSplineSet
Validated: 1
EndChar

StartChar: u
Encoding: 117 117 60
Width: 630
GlyphClass: 1
Flags: W
LayerCount: 2
Fore
SplineSet
75 240 m 2
 75 500 l 1
 175 500 l 1
 175 240 l 2
 175 150 234 85 315 85 c 0
 396 85 455 150 455 240 c 2
 455 500 l 1
 555 500 l 1
 555 240 l 2
 555 96 453 -10 315 -10 c 0
 177 -10 75 96 75 240 c 2
EndSplineSet
Validated: 1
Substitution2: "'ss01' Style Set 1 in Latin lookup 1 subtable" U.ss01
EndChar

StartChar: v
Encoding: 118 118 61
Width: 620
GlyphClass: 1
Flags: W
LayerCount: 2
Fore
SplineSet
30 500 m 1
 138 500 l 1
 306 90 l 1
 316 90 l 1
 484 500 l 1
 590 500 l 1
 385 0 l 1
 235 0 l 1
 30 500 l 1
EndSplineSet
Validated: 1
EndChar

StartChar: w
Encoding: 119 119 62
Width: 670
GlyphClass: 1
Flags: W
LayerCount: 2
Fore
SplineSet
40 500 m 1
 138 500 l 1
 181 130 l 1
 182 130 l 1
 182 130 193 190 219 251 c 2
 285 400 l 1
 385 400 l 1
 450 251 l 2
 477 191 488 130 488 130 c 1
 489 130 l 1
 532 500 l 1
 630 500 l 1
 570 0 l 1
 465 0 l 1
 376 201 l 2
 345 270 336 310 336 310 c 1
 334 310 l 1
 334 310 325 270 294 201 c 2
 205 0 l 1
 100 0 l 1
 40 500 l 1
EndSplineSet
Validated: 1
EndChar

StartChar: x
Encoding: 120 120 63
Width: 631
GlyphClass: 1
Flags: W
LayerCount: 2
Fore
SplineSet
30 0 m 1
 252 259 l 1
 45 500 l 1
 170 500 l 1
 317 330 l 1
 460 500 l 1
 586 500 l 1
 378 258 l 1
 601 0 l 1
 475 0 l 1
 313 188 l 1
 155 0 l 1
 30 0 l 1
EndSplineSet
Validated: 1
EndChar

StartChar: y
Encoding: 121 121 64
Width: 580
GlyphClass: 1
Flags: W
LayerCount: 2
Fore
SplineSet
240 175 m 1
 30 500 l 1
 145 500 l 1
 243 350 l 2
 275 300 289 260 289 260 c 1
 291 260 l 1
 291 260 305 300 337 350 c 2
 434 500 l 1
 550 500 l 1
 340 175 l 1
 340 0 l 1
 240 0 l 1
 240 175 l 1
EndSplineSet
Validated: 1
EndChar

StartChar: z
Encoding: 122 122 65
Width: 610
GlyphClass: 1
Flags: W
LayerCount: 2
Fore
SplineSet
60 0 m 1
 60 80 l 1
 394 410 l 1
 70 410 l 1
 70 500 l 1
 540 500 l 1
 540 420 l 1
 205 90 l 1
 550 90 l 1
 550 0 l 1
 60 0 l 1
EndSplineSet
Validated: 1
EndChar

StartChar: Aacute
Encoding: 193 193 66
Width: 620
GlyphClass: 1
Flags: W
LayerCount: 2
Fore
SplineSet
136 0 m 1
 30 0 l 1
 235 500 l 1
 385 500 l 1
 590 0 l 1
 482 0 l 1
 441 100 l 1
 177 100 l 1
 136 0 l 1
304 410 m 1
 214 190 l 1
 404 190 l 1
 314 410 l 1
 304 410 l 1
261 577 m 1
 236 645 l 1
 435 735 l 1
 472 642 l 1
 261 577 l 1
EndSplineSet
Validated: 1
EndChar

StartChar: Acircumflex
Encoding: 194 194 67
Width: 620
GlyphClass: 1
Flags: W
LayerCount: 2
Fore
SplineSet
136 0 m 1
 30 0 l 1
 235 500 l 1
 385 500 l 1
 590 0 l 1
 482 0 l 1
 441 100 l 1
 177 100 l 1
 136 0 l 1
180 572 m 1
 150 630 l 1
 274 715 l 1
 347 715 l 1
 471 630 l 1
 441 572 l 1
 311 627 l 1
 180 572 l 1
304 410 m 1
 214 190 l 1
 404 190 l 1
 314 410 l 1
 304 410 l 1
EndSplineSet
Validated: 1
EndChar

StartChar: Adieresis
Encoding: 196 196 68
Width: 620
GlyphClass: 1
Flags: W
LayerCount: 2
Fore
SplineSet
136 0 m 1
 30 0 l 1
 235 500 l 1
 385 500 l 1
 590 0 l 1
 482 0 l 1
 441 100 l 1
 177 100 l 1
 136 0 l 1
304 410 m 1
 214 190 l 1
 404 190 l 1
 314 410 l 1
 304 410 l 1
415 565 m 0
 379 565 355 589 355 625 c 0
 355 661 379 685 415 685 c 0
 451 685 475 661 475 625 c 0
 475 589 451 565 415 565 c 0
205 565 m 0
 169 565 145 589 145 625 c 0
 145 661 169 685 205 685 c 0
 241 685 265 661 265 625 c 0
 265 589 241 565 205 565 c 0
EndSplineSet
Validated: 1
EndChar

StartChar: Agrave
Encoding: 192 192 69
Width: 620
GlyphClass: 1
Flags: W
LayerCount: 2
Fore
SplineSet
136 0 m 1
 30 0 l 1
 235 500 l 1
 385 500 l 1
 590 0 l 1
 482 0 l 1
 441 100 l 1
 177 100 l 1
 136 0 l 1
304 410 m 1
 214 190 l 1
 404 190 l 1
 314 410 l 1
 304 410 l 1
353 577 m 1
 142 642 l 1
 179 735 l 1
 378 645 l 1
 353 577 l 1
EndSplineSet
Validated: 1
EndChar

StartChar: amacron
Encoding: 257 257 70
Width: 620
GlyphClass: 1
Flags: W
LayerCount: 2
Fore
SplineSet
136 0 m 1
 30 0 l 1
 235 500 l 1
 385 500 l 1
 590 0 l 1
 482 0 l 1
 441 100 l 1
 177 100 l 1
 136 0 l 1
160 580 m 1
 160 670 l 1
 460 670 l 1
 460 580 l 1
 160 580 l 1
304 410 m 1
 214 190 l 1
 404 190 l 1
 314 410 l 1
 304 410 l 1
EndSplineSet
Validated: 1
EndChar

StartChar: Aring
Encoding: 197 197 71
Width: 620
GlyphClass: 1
Flags: W
LayerCount: 2
Fore
SplineSet
136 0 m 1
 30 0 l 1
 235 500 l 1
 385 500 l 1
 590 0 l 1
 482 0 l 1
 441 100 l 1
 177 100 l 1
 136 0 l 1
310 540 m 0
 261 540 225 576 225 625 c 0
 225 674 261 710 310 710 c 0
 359 710 395 674 395 625 c 0
 395 576 359 540 310 540 c 0
304 410 m 1
 214 190 l 1
 404 190 l 1
 314 410 l 1
 304 410 l 1
EndSplineSet
Validated: 1
EndChar

StartChar: AE
Encoding: 198 198 72
Width: 733
GlyphClass: 1
Flags: W
LayerCount: 2
Fore
SplineSet
30 0 m 1
 174 500 l 1
 658 500 l 1
 658 410 l 1
 368 410 l 1
 401 295 l 1
 558 295 l 1
 558 205 l 1
 427 205 l 1
 460 90 l 1
 658 90 l 1
 658 0 l 1
 380 0 l 1
 351 100 l 1
 163 100 l 1
 134 0 l 1
 30 0 l 1
189 190 m 1
 325 190 l 1
 262 410 l 1
 252 410 l 1
 189 190 l 1
EndSplineSet
Validated: 1
EndChar

StartChar: Cacute
Encoding: 262 262 73
Width: 617
GlyphClass: 1
Flags: W
LayerCount: 2
Fore
SplineSet
310 -10 m 0
 160 -10 50 100 50 250 c 0
 50 400 160 510 310 510 c 0
 445 510 547 422 567 295 c 1
 460 295 l 1
 443 366 385 415 310 415 c 0
 220 415 155 345 155 250 c 0
 155 155 220 85 310 85 c 0
 385 85 443 134 460 205 c 1
 567 205 l 1
 547 78 445 -10 310 -10 c 0
212 645 m 1
 411 735 l 1
 448 642 l 1
 237 577 l 1
 212 645 l 1
EndSplineSet
Validated: 1
EndChar

StartChar: Ccaron
Encoding: 268 268 74
Width: 617
GlyphClass: 1
Flags: W
LayerCount: 2
Fore
SplineSet
310 -10 m 0
 160 -10 50 100 50 250 c 0
 50 400 160 510 310 510 c 0
 445 510 547 422 567 295 c 1
 460 295 l 1
 443 366 385 415 310 415 c 0
 220 415 155 345 155 250 c 0
 155 155 220 85 310 85 c 0
 385 85 443 134 460 205 c 1
 567 205 l 1
 547 78 445 -10 310 -10 c 0
272 577 m 1
 148 662 l 1
 178 720 l 1
 309 665 l 1
 439 720 l 1
 469 662 l 1
 345 577 l 1
 272 577 l 1
EndSplineSet
Validated: 1
EndChar

StartChar: Ccedilla
Encoding: 199 199 75
Width: 617
GlyphClass: 1
Flags: W
LayerCount: 2
Fore
SplineSet
50 250 m 0
 50 400 160 510 310 510 c 0
 445 510 547 422 567 295 c 1
 460 295 l 1
 443 366 385 415 310 415 c 0
 220 415 155 345 155 250 c 0
 155 155 220 85 310 85 c 0
 385 85 443 134 460 205 c 1
 567 205 l 1
 549 94 469 12 358 -6 c 1
 358 -100 l 1
 258 -100 l 1
 258 -5 l 1
 135 17 50 118 50 250 c 0
EndSplineSet
Validated: 1
EndChar

StartChar: Ccircumflex
Encoding: 264 264 76
Width: 617
GlyphClass: 1
Flags: W
LayerCount: 2
Fore
SplineSet
310 -10 m 0
 160 -10 50 100 50 250 c 0
 50 400 160 510 310 510 c 0
 445 510 547 422 567 295 c 1
 460 295 l 1
 443 366 385 415 310 415 c 0
 220 415 155 345 155 250 c 0
 155 155 220 85 310 85 c 0
 385 85 443 134 460 205 c 1
 567 205 l 1
 547 78 445 -10 310 -10 c 0
178 572 m 1
 148 630 l 1
 272 715 l 1
 345 715 l 1
 469 630 l 1
 439 572 l 1
 309 627 l 1
 178 572 l 1
EndSplineSet
Validated: 1
EndChar

StartChar: Cdotaccent
Encoding: 266 266 77
Width: 617
GlyphClass: 1
Flags: W
LayerCount: 2
Fore
SplineSet
310 -10 m 0
 160 -10 50 100 50 250 c 0
 50 400 160 510 310 510 c 0
 445 510 547 422 567 295 c 1
 460 295 l 1
 443 366 385 415 310 415 c 0
 220 415 155 345 155 250 c 0
 155 155 220 85 310 85 c 0
 385 85 443 134 460 205 c 1
 567 205 l 1
 547 78 445 -10 310 -10 c 0
248 625 m 0
 248 661 272 685 308 685 c 0
 344 685 368 661 368 625 c 0
 368 589 344 565 308 565 c 0
 272 565 248 589 248 625 c 0
EndSplineSet
Validated: 1
EndChar

StartChar: Dcaron
Encoding: 270 270 78
Width: 635
GlyphClass: 1
Flags: W
LayerCount: 2
Fore
SplineSet
75 500 m 1
 325 500 l 2
 475 500 585 395 585 250 c 0
 585 106 475 0 325 0 c 2
 75 0 l 1
 75 500 l 1
175 410 m 1
 175 90 l 1
 325 90 l 2
 415 90 480 157 480 250 c 0
 480 342 415 410 325 410 c 2
 175 410 l 1
271 577 m 1
 147 662 l 1
 177 720 l 1
 308 665 l 1
 438 720 l 1
 468 662 l 1
 344 577 l 1
 271 577 l 1
EndSplineSet
Validated: 1
EndChar

StartChar: Eacute
Encoding: 201 201 79
Width: 625
GlyphClass: 1
Flags: W
LayerCount: 2
Fore
SplineSet
75 0 m 1
 75 500 l 1
 565 500 l 1
 565 410 l 1
 175 410 l 1
 175 295 l 1
 465 295 l 1
 465 205 l 1
 175 205 l 1
 175 90 l 1
 565 90 l 1
 565 0 l 1
 75 0 l 1
264 577 m 1
 239 645 l 1
 438 735 l 1
 475 642 l 1
 264 577 l 1
EndSplineSet
Validated: 1
EndChar

StartChar: Ecaron
Encoding: 282 282 80
Width: 625
GlyphClass: 1
Flags: W
LayerCount: 2
Fore
SplineSet
75 500 m 1
 565 500 l 1
 565 410 l 1
 175 410 l 1
 175 295 l 1
 465 295 l 1
 465 205 l 1
 175 205 l 1
 175 90 l 1
 565 90 l 1
 565 0 l 1
 75 0 l 1
 75 500 l 1
152 662 m 1
 182 720 l 1
 313 665 l 1
 443 720 l 1
 473 662 l 1
 349 577 l 1
 276 577 l 1
 152 662 l 1
EndSplineSet
Validated: 1
EndChar

StartChar: Ecircumflex
Encoding: 202 202 81
Width: 625
GlyphClass: 1
Flags: W
LayerCount: 2
Fore
SplineSet
75 500 m 1
 565 500 l 1
 565 410 l 1
 175 410 l 1
 175 295 l 1
 465 295 l 1
 465 205 l 1
 175 205 l 1
 175 90 l 1
 565 90 l 1
 565 0 l 1
 75 0 l 1
 75 500 l 1
152 630 m 1
 276 715 l 1
 349 715 l 1
 473 630 l 1
 443 572 l 1
 313 627 l 1
 182 572 l 1
 152 630 l 1
EndSplineSet
Validated: 1
EndChar

StartChar: Edieresis
Encoding: 203 203 82
Width: 625
GlyphClass: 1
Flags: W
LayerCount: 2
Fore
SplineSet
75 500 m 1
 565 500 l 1
 565 410 l 1
 175 410 l 1
 175 295 l 1
 465 295 l 1
 465 205 l 1
 175 205 l 1
 175 90 l 1
 565 90 l 1
 565 0 l 1
 75 0 l 1
 75 500 l 1
418 565 m 0
 382 565 358 589 358 625 c 0
 358 661 382 685 418 685 c 0
 454 685 478 661 478 625 c 0
 478 589 454 565 418 565 c 0
208 565 m 0
 172 565 148 589 148 625 c 0
 148 661 172 685 208 685 c 0
 244 685 268 661 268 625 c 0
 268 589 244 565 208 565 c 0
EndSplineSet
Validated: 1
EndChar

StartChar: edotaccent
Encoding: 279 279 83
Width: 625
GlyphClass: 1
Flags: W
LayerCount: 2
Fore
SplineSet
75 500 m 1
 565 500 l 1
 565 410 l 1
 175 410 l 1
 175 295 l 1
 465 295 l 1
 465 205 l 1
 175 205 l 1
 175 90 l 1
 565 90 l 1
 565 0 l 1
 75 0 l 1
 75 500 l 1
253 625 m 0
 253 661 277 685 313 685 c 0
 349 685 373 661 373 625 c 0
 373 589 349 565 313 565 c 0
 277 565 253 589 253 625 c 0
EndSplineSet
Validated: 1
EndChar

StartChar: Egrave
Encoding: 200 200 84
Width: 625
GlyphClass: 1
Flags: W
LayerCount: 2
Fore
SplineSet
75 0 m 1
 75 500 l 1
 565 500 l 1
 565 410 l 1
 175 410 l 1
 175 295 l 1
 465 295 l 1
 465 205 l 1
 175 205 l 1
 175 90 l 1
 565 90 l 1
 565 0 l 1
 75 0 l 1
396 577 m 1
 185 642 l 1
 222 735 l 1
 421 645 l 1
 396 577 l 1
EndSplineSet
Validated: 1
EndChar

StartChar: emacron
Encoding: 275 275 85
Width: 625
GlyphClass: 1
Flags: W
LayerCount: 2
Fore
SplineSet
75 0 m 1
 75 500 l 1
 565 500 l 1
 565 410 l 1
 175 410 l 1
 175 295 l 1
 465 295 l 1
 465 205 l 1
 175 205 l 1
 175 90 l 1
 565 90 l 1
 565 0 l 1
 75 0 l 1
463 580 m 1
 163 580 l 1
 163 670 l 1
 463 670 l 1
 463 580 l 1
EndSplineSet
Validated: 1
EndChar

StartChar: Eth
Encoding: 208 208 86
Width: 635
GlyphClass: 1
Flags: W
LayerCount: 2
Fore
SplineSet
75 205 m 1
 25 205 l 1
 25 295 l 1
 75 295 l 1
 75 500 l 1
 325 500 l 2
 475 500 585 395 585 250 c 0
 585 106 475 0 325 0 c 2
 75 0 l 1
 75 205 l 1
325 205 m 1
 175 205 l 1
 175 90 l 1
 325 90 l 2
 415 90 480 157 480 250 c 0
 480 342 415 410 325 410 c 2
 175 410 l 1
 175 295 l 1
 325 295 l 1
 325 205 l 1
EndSplineSet
Validated: 1
EndChar

StartChar: Gcircumflex
Encoding: 284 284 87
Width: 620
GlyphClass: 1
Flags: W
LayerCount: 2
Fore
SplineSet
50 250 m 0
 50 400 160 510 310 510 c 0
 385 510 450 483 496 437 c 1
 424 365 l 1
 397 396 357 415 310 415 c 0
 220 415 155 345 155 250 c 0
 155 155 220 85 310 85 c 0
 383 85 440 131 459 200 c 1
 310 200 l 1
 310 290 l 1
 567 290 l 1
 569 277 570 264 570 250 c 0
 570 100 460 -10 310 -10 c 0
 160 -10 50 100 50 250 c 0
180 572 m 1
 150 630 l 1
 274 715 l 1
 347 715 l 1
 471 630 l 1
 441 572 l 1
 311 627 l 1
 180 572 l 1
EndSplineSet
Validated: 1
EndChar

StartChar: gdotaccent
Encoding: 289 289 88
Width: 620
GlyphClass: 1
Flags: W
LayerCount: 2
Fore
SplineSet
50 250 m 0
 50 400 160 510 310 510 c 0
 385 510 450 483 496 437 c 1
 424 365 l 1
 397 396 357 415 310 415 c 0
 220 415 155 345 155 250 c 0
 155 155 220 85 310 85 c 0
 383 85 440 131 459 200 c 1
 310 200 l 1
 310 290 l 1
 567 290 l 1
 569 277 570 264 570 250 c 0
 570 100 460 -10 310 -10 c 0
 160 -10 50 100 50 250 c 0
250 625 m 0
 250 661 274 685 310 685 c 0
 346 685 370 661 370 625 c 0
 370 589 346 565 310 565 c 0
 274 565 250 589 250 625 c 0
EndSplineSet
Validated: 1
EndChar

StartChar: Hcircumflex
Encoding: 292 292 89
Width: 650
GlyphClass: 1
Flags: W
LayerCount: 2
Fore
SplineSet
175 0 m 1
 75 0 l 1
 75 500 l 1
 175 500 l 1
 175 295 l 1
 475 295 l 1
 475 500 l 1
 575 500 l 1
 575 0 l 1
 475 0 l 1
 475 205 l 1
 175 205 l 1
 175 0 l 1
165 630 m 1
 289 715 l 1
 362 715 l 1
 486 630 l 1
 456 572 l 1
 326 627 l 1
 195 572 l 1
 165 630 l 1
EndSplineSet
Validated: 1
EndChar

StartChar: Idieresis
Encoding: 207 207 90
Width: 250
GlyphClass: 1
Flags: W
LayerCount: 2
Fore
SplineSet
75 500 m 1
 175 500 l 1
 175 0 l 1
 75 0 l 1
 75 500 l 1
170 625 m 0
 170 661 194 685 230 685 c 0
 266 685 290 661 290 625 c 0
 290 589 266 565 230 565 c 0
 194 565 170 589 170 625 c 0
-40 625 m 0
 -40 661 -16 685 20 685 c 0
 56 685 80 661 80 625 c 0
 80 589 56 565 20 565 c 0
 -16 565 -40 589 -40 625 c 0
EndSplineSet
Validated: 1
EndChar

StartChar: Iacute
Encoding: 205 205 91
Width: 250
GlyphClass: 1
Flags: W
LayerCount: 2
Fore
SplineSet
75 500 m 1
 175 500 l 1
 175 0 l 1
 75 0 l 1
 75 500 l 1
56 645 m 1
 255 735 l 1
 292 642 l 1
 81 577 l 1
 56 645 l 1
EndSplineSet
Validated: 1
EndChar

StartChar: Icircumflex
Encoding: 206 206 92
Width: 250
GlyphClass: 1
Flags: W
LayerCount: 2
Fore
SplineSet
75 500 m 1
 175 500 l 1
 175 0 l 1
 75 0 l 1
 75 500 l 1
-6 572 m 1
 -36 630 l 1
 88 715 l 1
 161 715 l 1
 285 630 l 1
 255 572 l 1
 125 627 l 1
 -6 572 l 1
EndSplineSet
Validated: 1
EndChar

StartChar: Idotaccent
Encoding: 304 304 93
Width: 250
GlyphClass: 1
Flags: W
LayerCount: 2
Fore
SplineSet
75 500 m 1
 175 500 l 1
 175 0 l 1
 75 0 l 1
 75 500 l 1
65 625 m 0
 65 661 89 685 125 685 c 0
 161 685 185 661 185 625 c 0
 185 589 161 565 125 565 c 0
 89 565 65 589 65 625 c 0
EndSplineSet
Validated: 1
EndChar

StartChar: Igrave
Encoding: 204 204 94
Width: 250
GlyphClass: 1
Flags: W
LayerCount: 2
Fore
SplineSet
75 500 m 1
 175 500 l 1
 175 0 l 1
 75 0 l 1
 75 500 l 1
-43 642 m 1
 -6 735 l 1
 193 645 l 1
 168 577 l 1
 -43 642 l 1
EndSplineSet
Validated: 1
EndChar

StartChar: imacron
Encoding: 299 299 95
Width: 250
GlyphClass: 1
Flags: W
LayerCount: 2
Fore
SplineSet
75 500 m 1
 175 500 l 1
 175 0 l 1
 75 0 l 1
 75 500 l 1
-25 580 m 1
 -25 670 l 1
 275 670 l 1
 275 580 l 1
 -25 580 l 1
EndSplineSet
Validated: 1
EndChar

StartChar: Jcircumflex
Encoding: 308 308 96
Width: 530
GlyphClass: 1
Flags: W
LayerCount: 2
Fore
SplineSet
55 190 m 1
 155 190 l 1
 155 130 198 85 255 85 c 0
 312 85 355 130 355 190 c 2
 355 500 l 1
 455 500 l 1
 455 190 l 2
 455 75 370 -10 255 -10 c 0
 140 -10 55 75 55 190 c 1
265 572 m 1
 235 630 l 1
 359 715 l 1
 432 715 l 1
 556 630 l 1
 526 572 l 1
 396 627 l 1
 265 572 l 1
EndSplineSet
Validated: 1
EndChar

StartChar: Lacute
Encoding: 313 313 97
Width: 515
GlyphClass: 1
Flags: W
LayerCount: 2
Fore
SplineSet
75 500 m 1
 175 500 l 1
 175 90 l 1
 475 90 l 1
 475 0 l 1
 75 0 l 1
 75 500 l 1
70 645 m 1
 269 735 l 1
 306 642 l 1
 95 577 l 1
 70 645 l 1
EndSplineSet
Validated: 1
EndChar

StartChar: Lcaron
Encoding: 317 317 98
Width: 515
GlyphClass: 1
Flags: W
LayerCount: 2
Fore
SplineSet
75 500 m 1
 175 500 l 1
 175 90 l 1
 475 90 l 1
 475 0 l 1
 75 0 l 1
 75 500 l 1
350 450 m 2
 350 525 l 1
 450 525 l 1
 450 450 l 2
 450 386 420 330 420 330 c 1
 340 350 l 1
 340 350 350 396 350 450 c 2
EndSplineSet
Validated: 1
EndChar

StartChar: Nacute
Encoding: 323 323 99
Width: 650
GlyphClass: 1
Flags: W
LayerCount: 2
Fore
SplineSet
175 0 m 1
 75 0 l 1
 75 500 l 1
 165 500 l 1
 475 155 l 1
 475 500 l 1
 575 500 l 1
 575 0 l 1
 485 0 l 1
 175 345 l 1
 175 0 l 1
242 577 m 1
 217 645 l 1
 416 735 l 1
 453 642 l 1
 242 577 l 1
EndSplineSet
Validated: 1
EndChar

StartChar: Ncaron
Encoding: 327 327 100
Width: 650
GlyphClass: 1
Flags: W
LayerCount: 2
Fore
SplineSet
175 0 m 1
 75 0 l 1
 75 500 l 1
 165 500 l 1
 475 155 l 1
 475 500 l 1
 575 500 l 1
 575 0 l 1
 485 0 l 1
 175 345 l 1
 175 0 l 1
289 577 m 1
 165 662 l 1
 195 720 l 1
 326 665 l 1
 456 720 l 1
 486 662 l 1
 362 577 l 1
 289 577 l 1
EndSplineSet
Validated: 1
EndChar

StartChar: Oacute
Encoding: 211 211 101
Width: 620
GlyphClass: 1
Flags: W
LayerCount: 2
Fore
SplineSet
50 250 m 0
 50 400 160 510 310 510 c 0
 460 510 570 400 570 250 c 0
 570 100 460 -10 310 -10 c 0
 160 -10 50 100 50 250 c 0
155 250 m 0
 155 155 220 85 310 85 c 0
 400 85 465 155 465 250 c 0
 465 345 400 415 310 415 c 0
 220 415 155 345 155 250 c 0
212 645 m 1
 411 735 l 1
 448 642 l 1
 237 577 l 1
 212 645 l 1
EndSplineSet
Validated: 1
EndChar

StartChar: Ocircumflex
Encoding: 212 212 102
Width: 620
GlyphClass: 1
Flags: W
LayerCount: 2
Fore
SplineSet
50 250 m 0
 50 400 160 510 310 510 c 0
 460 510 570 400 570 250 c 0
 570 100 460 -10 310 -10 c 0
 160 -10 50 100 50 250 c 0
155 250 m 0
 155 155 220 85 310 85 c 0
 400 85 465 155 465 250 c 0
 465 345 400 415 310 415 c 0
 220 415 155 345 155 250 c 0
180 572 m 1
 150 630 l 1
 274 715 l 1
 347 715 l 1
 471 630 l 1
 441 572 l 1
 311 627 l 1
 180 572 l 1
EndSplineSet
Validated: 1
EndChar

StartChar: Odieresis
Encoding: 214 214 103
Width: 620
GlyphClass: 1
Flags: W
LayerCount: 2
Fore
SplineSet
50 250 m 0
 50 400 160 510 310 510 c 0
 460 510 570 400 570 250 c 0
 570 100 460 -10 310 -10 c 0
 160 -10 50 100 50 250 c 0
155 250 m 0
 155 155 220 85 310 85 c 0
 400 85 465 155 465 250 c 0
 465 345 400 415 310 415 c 0
 220 415 155 345 155 250 c 0
355 625 m 0
 355 661 379 685 415 685 c 0
 451 685 475 661 475 625 c 0
 475 589 451 565 415 565 c 0
 379 565 355 589 355 625 c 0
145 625 m 0
 145 661 169 685 205 685 c 0
 241 685 265 661 265 625 c 0
 265 589 241 565 205 565 c 0
 169 565 145 589 145 625 c 0
EndSplineSet
Validated: 1
EndChar

StartChar: Ograve
Encoding: 210 210 104
Width: 620
GlyphClass: 1
Flags: W
LayerCount: 2
Fore
SplineSet
50 250 m 0
 50 400 160 510 310 510 c 0
 460 510 570 400 570 250 c 0
 570 100 460 -10 310 -10 c 0
 160 -10 50 100 50 250 c 0
155 250 m 0
 155 155 220 85 310 85 c 0
 400 85 465 155 465 250 c 0
 465 345 400 415 310 415 c 0
 220 415 155 345 155 250 c 0
132 642 m 1
 169 735 l 1
 368 645 l 1
 343 577 l 1
 132 642 l 1
EndSplineSet
Validated: 1
EndChar

StartChar: omacron
Encoding: 333 333 105
Width: 620
GlyphClass: 1
Flags: W
LayerCount: 2
Fore
SplineSet
50 250 m 0
 50 400 160 510 310 510 c 0
 460 510 570 400 570 250 c 0
 570 100 460 -10 310 -10 c 0
 160 -10 50 100 50 250 c 0
155 250 m 0
 155 155 220 85 310 85 c 0
 400 85 465 155 465 250 c 0
 465 345 400 415 310 415 c 0
 220 415 155 345 155 250 c 0
160 580 m 1
 160 670 l 1
 460 670 l 1
 460 580 l 1
 160 580 l 1
EndSplineSet
Validated: 1
EndChar

StartChar: Oslash
Encoding: 216 216 106
Width: 629
GlyphClass: 1
Flags: W
LayerCount: 2
Fore
SplineSet
50 39 m 1
 90 79 l 2
 91 80 93 82 94 83 c 0
 97 86 101 89 104 93 c 1
 73 136 55 190 55 250 c 0
 55 400 164 510 315 510 c 0
 375 510 429 492 473 461 c 1
 476 464 479 468 482 471 c 0
 483 472 485 474 486 475 c 2
 526 515 l 1
 579 461 l 1
 539 421 l 2
 535 417 530 413 525 409 c 1
 557 366 575 311 575 250 c 0
 575 100 465 -10 315 -10 c 0
 254 -10 200 8 158 39 c 0
 157 39 157 39 156 40 c 1
 152 34 148 29 144 25 c 2
 104 -15 l 1
 50 39 l 1
315 85 m 0
 404 85 470 155 470 250 c 0
 470 281 463 310 450 334 c 1
 445 327 439 320 434 315 c 2
 245 126 l 2
 240 121 234 116 228 111 c 1
 253 94 283 85 315 85 c 0
196 185 m 2
 385 374 l 2
 390 379 396 384 401 390 c 1
 376 406 347 415 315 415 c 0
 225 415 160 345 160 250 c 0
 160 220 167 192 179 168 c 1
 185 173 191 180 196 185 c 2
EndSplineSet
Validated: 1
Substitution2: "'ss01' Style Set 1 in Latin lookup 1 subtable" Oslash.ss01
EndChar

StartChar: Racute
Encoding: 340 340 107
Width: 640
GlyphClass: 1
Flags: W
LayerCount: 2
Fore
SplineSet
175 0 m 1
 75 0 l 1
 75 500 l 1
 435 500 l 2
 525 500 585 440 585 350 c 0
 585 270 533 214 454 206 c 1
 461 198 468 189 472 182 c 2
 585 0 l 1
 472 0 l 1
 345 205 l 1
 175 205 l 1
 175 0 l 1
175 410 m 1
 175 295 l 1
 435 295 l 2
 465 295 485 315 485 345 c 2
 485 360 l 2
 485 390 465 410 435 410 c 2
 175 410 l 1
227 577 m 1
 202 645 l 1
 401 735 l 1
 438 642 l 1
 227 577 l 1
EndSplineSet
Validated: 1
EndChar

StartChar: Rcaron
Encoding: 344 344 108
Width: 640
GlyphClass: 1
Flags: W
LayerCount: 2
Fore
SplineSet
75 500 m 1
 435 500 l 2
 525 500 585 440 585 350 c 0
 585 270 533 214 454 206 c 1
 461 198 468 189 472 182 c 2
 585 0 l 1
 472 0 l 1
 345 205 l 1
 175 205 l 1
 175 0 l 1
 75 0 l 1
 75 500 l 1
175 295 m 1
 435 295 l 2
 465 295 485 315 485 345 c 2
 485 360 l 2
 485 390 465 410 435 410 c 2
 175 410 l 1
 175 295 l 1
284 577 m 1
 160 662 l 1
 190 720 l 1
 321 665 l 1
 451 720 l 1
 481 662 l 1
 357 577 l 1
 284 577 l 1
EndSplineSet
Validated: 1
EndChar

StartChar: Sacute
Encoding: 346 346 109
Width: 580
GlyphClass: 1
Flags: W
LayerCount: 2
Fore
SplineSet
50 150 m 1
 150 150 l 1
 150 108 206 80 290 80 c 0
 381 80 430 106 430 153 c 0
 430 193 386 210 286 210 c 0
 128 210 60 252 60 353 c 0
 60 455 140 510 290 510 c 0
 428 510 520 446 520 350 c 1
 420 350 l 1
 420 392 368 420 290 420 c 0
 205 420 160 397 160 353 c 0
 160 315 200 300 295 300 c 0
 460 300 530 255 530 153 c 0
 530 47 446 -10 290 -10 c 0
 146 -10 50 54 50 150 c 1
182 645 m 1
 381 735 l 1
 418 642 l 1
 207 577 l 1
 182 645 l 1
EndSplineSet
Validated: 1
EndChar

StartChar: Scaron
Encoding: 352 352 110
Width: 580
GlyphClass: 1
Flags: W
LayerCount: 2
Fore
SplineSet
50 150 m 1
 150 150 l 1
 150 108 206 80 290 80 c 0
 381 80 430 106 430 153 c 0
 430 193 386 210 286 210 c 0
 128 210 60 252 60 353 c 0
 60 455 140 510 290 510 c 0
 428 510 520 446 520 350 c 1
 420 350 l 1
 420 392 368 420 290 420 c 0
 205 420 160 397 160 353 c 0
 160 315 200 300 295 300 c 0
 460 300 530 255 530 153 c 0
 530 47 446 -10 290 -10 c 0
 146 -10 50 54 50 150 c 1
254 577 m 1
 130 662 l 1
 160 720 l 1
 291 665 l 1
 421 720 l 1
 451 662 l 1
 327 577 l 1
 254 577 l 1
EndSplineSet
Validated: 1
EndChar

StartChar: Scedilla
Encoding: 350 350 111
Width: 580
GlyphClass: 1
Flags: W
LayerCount: 2
Fore
SplineSet
240 -7 m 1
 124 6 50 66 50 150 c 1
 150 150 l 1
 150 108 206 80 290 80 c 0
 381 80 430 106 430 153 c 0
 430 193 386 210 286 210 c 0
 128 210 60 252 60 353 c 0
 60 455 140 510 290 510 c 0
 428 510 520 446 520 350 c 1
 420 350 l 1
 420 392 368 420 290 420 c 0
 205 420 160 397 160 353 c 0
 160 315 200 300 295 300 c 0
 460 300 530 255 530 153 c 0
 530 59 464 3 340 -8 c 1
 340 -100 l 1
 240 -100 l 1
 240 -7 l 1
EndSplineSet
Validated: 1
EndChar

StartChar: Scircumflex
Encoding: 348 348 112
Width: 580
GlyphClass: 1
Flags: W
LayerCount: 2
Fore
SplineSet
50 150 m 1
 150 150 l 1
 150 108 206 80 290 80 c 0
 381 80 430 106 430 153 c 0
 430 193 386 210 286 210 c 0
 128 210 60 252 60 353 c 0
 60 455 140 510 290 510 c 0
 428 510 520 446 520 350 c 1
 420 350 l 1
 420 392 368 420 290 420 c 0
 205 420 160 397 160 353 c 0
 160 315 200 300 295 300 c 0
 460 300 530 255 530 153 c 0
 530 47 446 -10 290 -10 c 0
 146 -10 50 54 50 150 c 1
160 572 m 1
 130 630 l 1
 254 715 l 1
 327 715 l 1
 451 630 l 1
 421 572 l 1
 291 627 l 1
 160 572 l 1
EndSplineSet
Validated: 1
EndChar

StartChar: Tbar
Encoding: 358 358 113
Width: 580
GlyphClass: 1
Flags: W
LayerCount: 2
Fore
SplineSet
40 410 m 1
 40 500 l 1
 540 500 l 1
 540 410 l 1
 340 410 l 1
 340 295 l 1
 440 295 l 1
 440 205 l 1
 340 205 l 1
 340 0 l 1
 240 0 l 1
 240 205 l 1
 140 205 l 1
 140 295 l 1
 240 295 l 1
 240 410 l 1
 40 410 l 1
EndSplineSet
Validated: 1
EndChar

StartChar: Tcaron
Encoding: 356 356 114
Width: 580
GlyphClass: 1
Flags: W
LayerCount: 2
Fore
SplineSet
40 500 m 1
 540 500 l 1
 540 410 l 1
 340 410 l 1
 340 0 l 1
 240 0 l 1
 240 410 l 1
 40 410 l 1
 40 500 l 1
130 662 m 1
 160 720 l 1
 291 665 l 1
 421 720 l 1
 451 662 l 1
 327 577 l 1
 254 577 l 1
 130 662 l 1
EndSplineSet
Validated: 1
EndChar

StartChar: uni0162
Encoding: 354 354 115
Width: 580
GlyphClass: 1
Flags: W
LayerCount: 2
Fore
SplineSet
40 500 m 1
 540 500 l 1
 540 410 l 1
 340 410 l 1
 340 -100 l 1
 240 -100 l 1
 240 410 l 1
 40 410 l 1
 40 500 l 1
EndSplineSet
Validated: 1
EndChar

StartChar: Udieresis
Encoding: 220 220 116
Width: 630
GlyphClass: 1
Flags: W
LayerCount: 2
Fore
SplineSet
75 240 m 2
 75 500 l 1
 175 500 l 1
 175 240 l 2
 175 150 234 85 315 85 c 0
 396 85 455 150 455 240 c 2
 455 500 l 1
 555 500 l 1
 555 240 l 2
 555 96 453 -10 315 -10 c 0
 177 -10 75 96 75 240 c 2
360 625 m 0
 360 661 384 685 420 685 c 0
 456 685 480 661 480 625 c 0
 480 589 456 565 420 565 c 0
 384 565 360 589 360 625 c 0
150 625 m 0
 150 661 174 685 210 685 c 0
 246 685 270 661 270 625 c 0
 270 589 246 565 210 565 c 0
 174 565 150 589 150 625 c 0
EndSplineSet
Validated: 1
EndChar

StartChar: Uacute
Encoding: 218 218 117
Width: 630
GlyphClass: 1
Flags: W
LayerCount: 2
Fore
SplineSet
75 500 m 1
 175 500 l 1
 175 240 l 2
 175 150 234 85 315 85 c 0
 396 85 455 150 455 240 c 2
 455 500 l 1
 555 500 l 1
 555 240 l 2
 555 96 453 -10 315 -10 c 0
 177 -10 75 96 75 240 c 2
 75 500 l 1
211 645 m 1
 410 735 l 1
 447 642 l 1
 236 577 l 1
 211 645 l 1
EndSplineSet
Validated: 1
EndChar

StartChar: Ucircumflex
Encoding: 219 219 118
Width: 630
GlyphClass: 1
Flags: W
LayerCount: 2
Fore
SplineSet
75 500 m 1
 175 500 l 1
 175 240 l 2
 175 150 234 85 315 85 c 0
 396 85 455 150 455 240 c 2
 455 500 l 1
 555 500 l 1
 555 240 l 2
 555 96 453 -10 315 -10 c 0
 177 -10 75 96 75 240 c 2
 75 500 l 1
155 630 m 1
 279 715 l 1
 352 715 l 1
 476 630 l 1
 446 572 l 1
 316 627 l 1
 185 572 l 1
 155 630 l 1
EndSplineSet
Validated: 1
EndChar

StartChar: Ugrave
Encoding: 217 217 119
Width: 630
GlyphClass: 1
Flags: W
LayerCount: 2
Fore
SplineSet
75 500 m 1
 175 500 l 1
 175 240 l 2
 175 150 234 85 315 85 c 0
 396 85 455 150 455 240 c 2
 455 500 l 1
 555 500 l 1
 555 240 l 2
 555 96 453 -10 315 -10 c 0
 177 -10 75 96 75 240 c 2
 75 500 l 1
157 642 m 1
 194 735 l 1
 393 645 l 1
 368 577 l 1
 157 642 l 1
EndSplineSet
Validated: 1
EndChar

StartChar: umacron
Encoding: 363 363 120
Width: 630
GlyphClass: 1
Flags: W
LayerCount: 2
Fore
SplineSet
75 500 m 1
 175 500 l 1
 175 240 l 2
 175 150 234 85 315 85 c 0
 396 85 455 150 455 240 c 2
 455 500 l 1
 555 500 l 1
 555 240 l 2
 555 96 453 -10 315 -10 c 0
 177 -10 75 96 75 240 c 2
 75 500 l 1
165 670 m 1
 465 670 l 1
 465 580 l 1
 165 580 l 1
 165 670 l 1
EndSplineSet
Validated: 1
EndChar

StartChar: Uring
Encoding: 366 366 121
Width: 630
GlyphClass: 1
Flags: W
LayerCount: 2
Fore
SplineSet
75 240 m 2
 75 500 l 1
 175 500 l 1
 175 240 l 2
 175 150 234 85 315 85 c 0
 396 85 455 150 455 240 c 2
 455 500 l 1
 555 500 l 1
 555 240 l 2
 555 96 453 -10 315 -10 c 0
 177 -10 75 96 75 240 c 2
315 540 m 0
 266 540 230 576 230 625 c 0
 230 674 266 710 315 710 c 0
 364 710 400 674 400 625 c 0
 400 576 364 540 315 540 c 0
EndSplineSet
Validated: 1
EndChar

StartChar: Wacute
Encoding: 7810 7810 122
Width: 670
GlyphClass: 1
Flags: W
LayerCount: 2
Fore
SplineSet
100 0 m 1
 40 500 l 1
 138 500 l 1
 181 130 l 1
 182 130 l 1
 182 130 193 190 219 251 c 2
 285 400 l 1
 385 400 l 1
 450 251 l 2
 477 191 488 130 488 130 c 1
 489 130 l 1
 532 500 l 1
 630 500 l 1
 570 0 l 1
 465 0 l 1
 376 201 l 2
 345 270 336 310 336 310 c 1
 334 310 l 1
 334 310 325 270 294 201 c 2
 205 0 l 1
 100 0 l 1
262 577 m 1
 237 645 l 1
 436 735 l 1
 473 642 l 1
 262 577 l 1
EndSplineSet
Validated: 1
EndChar

StartChar: Wcircumflex
Encoding: 372 372 123
Width: 670
GlyphClass: 1
Flags: W
LayerCount: 2
Fore
SplineSet
100 0 m 1
 40 500 l 1
 138 500 l 1
 181 130 l 1
 182 130 l 1
 182 130 193 190 219 251 c 2
 285 400 l 1
 385 400 l 1
 450 251 l 2
 477 191 488 130 488 130 c 1
 489 130 l 1
 532 500 l 1
 630 500 l 1
 570 0 l 1
 465 0 l 1
 376 201 l 2
 345 270 336 310 336 310 c 1
 334 310 l 1
 334 310 325 270 294 201 c 2
 205 0 l 1
 100 0 l 1
175 630 m 1
 299 715 l 1
 372 715 l 1
 496 630 l 1
 466 572 l 1
 336 627 l 1
 205 572 l 1
 175 630 l 1
EndSplineSet
Validated: 1
EndChar

StartChar: Wdieresis
Encoding: 7812 7812 124
Width: 670
GlyphClass: 1
Flags: W
LayerCount: 2
Fore
SplineSet
40 500 m 1
 138 500 l 1
 181 130 l 1
 182 130 l 1
 182 130 193 190 219 251 c 2
 285 400 l 1
 385 400 l 1
 450 251 l 2
 477 191 488 130 488 130 c 1
 489 130 l 1
 532 500 l 1
 630 500 l 1
 570 0 l 1
 465 0 l 1
 376 201 l 2
 345 270 336 310 336 310 c 1
 334 310 l 1
 334 310 325 270 294 201 c 2
 205 0 l 1
 100 0 l 1
 40 500 l 1
380 625 m 0
 380 661 404 685 440 685 c 0
 476 685 500 661 500 625 c 0
 500 589 476 565 440 565 c 0
 404 565 380 589 380 625 c 0
230 565 m 0
 194 565 170 589 170 625 c 0
 170 661 194 685 230 685 c 0
 266 685 290 661 290 625 c 0
 290 589 266 565 230 565 c 0
EndSplineSet
Validated: 1
EndChar

StartChar: Wgrave
Encoding: 7808 7808 125
Width: 670
GlyphClass: 1
Flags: W
LayerCount: 2
Fore
SplineSet
100 0 m 1
 40 500 l 1
 138 500 l 1
 181 130 l 1
 182 130 l 1
 182 130 193 190 219 251 c 2
 285 400 l 1
 385 400 l 1
 450 251 l 2
 477 191 488 130 488 130 c 1
 489 130 l 1
 532 500 l 1
 630 500 l 1
 570 0 l 1
 465 0 l 1
 376 201 l 2
 345 270 336 310 336 310 c 1
 334 310 l 1
 334 310 325 270 294 201 c 2
 205 0 l 1
 100 0 l 1
167 642 m 1
 204 735 l 1
 403 645 l 1
 378 577 l 1
 167 642 l 1
EndSplineSet
Validated: 1
EndChar

StartChar: Yacute
Encoding: 221 221 126
Width: 580
GlyphClass: 1
Flags: W
LayerCount: 2
Fore
SplineSet
30 500 m 1
 145 500 l 1
 243 350 l 2
 275 300 289 260 289 260 c 1
 291 260 l 1
 291 260 305 300 337 350 c 2
 434 500 l 1
 550 500 l 1
 340 175 l 1
 340 0 l 1
 240 0 l 1
 240 175 l 1
 30 500 l 1
231 577 m 1
 206 645 l 1
 405 735 l 1
 442 642 l 1
 231 577 l 1
EndSplineSet
Validated: 1
EndChar

StartChar: Ydieresis
Encoding: 376 376 127
Width: 580
GlyphClass: 1
Flags: W
LayerCount: 2
Fore
SplineSet
240 175 m 1
 30 500 l 1
 145 500 l 1
 243 350 l 2
 275 300 289 260 289 260 c 1
 291 260 l 1
 291 260 305 300 337 350 c 2
 434 500 l 1
 550 500 l 1
 340 175 l 1
 340 0 l 1
 240 0 l 1
 240 175 l 1
335 625 m 0
 335 661 359 685 395 685 c 0
 431 685 455 661 455 625 c 0
 455 589 431 565 395 565 c 0
 359 565 335 589 335 625 c 0
125 625 m 0
 125 661 149 685 185 685 c 0
 221 685 245 661 245 625 c 0
 245 589 221 565 185 565 c 0
 149 565 125 589 125 625 c 0
EndSplineSet
Validated: 1
EndChar

StartChar: Ycircumflex
Encoding: 374 374 128
Width: 560
GlyphClass: 1
Flags: W
LayerCount: 2
Fore
SplineSet
20 500 m 1
 135 500 l 1
 233 350 l 2
 265 300 279 260 279 260 c 1
 281 260 l 1
 281 260 295 300 327 350 c 2
 424 500 l 1
 540 500 l 1
 330 175 l 1
 330 0 l 1
 230 0 l 1
 230 175 l 1
 20 500 l 1
119 630 m 1
 243 715 l 1
 316 715 l 1
 440 630 l 1
 410 572 l 1
 280 627 l 1
 149 572 l 1
 119 630 l 1
EndSplineSet
Validated: 1
EndChar

StartChar: Zacute
Encoding: 377 377 129
Width: 610
GlyphClass: 1
Flags: W
LayerCount: 2
Fore
SplineSet
60 0 m 1
 60 80 l 1
 394 410 l 1
 70 410 l 1
 70 500 l 1
 540 500 l 1
 540 420 l 1
 205 90 l 1
 550 90 l 1
 550 0 l 1
 60 0 l 1
187 645 m 1
 386 735 l 1
 423 642 l 1
 212 577 l 1
 187 645 l 1
EndSplineSet
Validated: 1
EndChar

StartChar: Zcaron
Encoding: 381 381 130
Width: 610
GlyphClass: 1
Flags: W
LayerCount: 2
Fore
SplineSet
60 0 m 1
 60 80 l 1
 394 410 l 1
 70 410 l 1
 70 500 l 1
 540 500 l 1
 540 420 l 1
 205 90 l 1
 550 90 l 1
 550 0 l 1
 60 0 l 1
269 577 m 1
 145 662 l 1
 175 720 l 1
 306 665 l 1
 436 720 l 1
 466 662 l 1
 342 577 l 1
 269 577 l 1
EndSplineSet
Validated: 1
EndChar

StartChar: zdotaccent
Encoding: 380 380 131
Width: 610
GlyphClass: 1
Flags: W
LayerCount: 2
Fore
SplineSet
60 0 m 1
 60 80 l 1
 394 410 l 1
 70 410 l 1
 70 500 l 1
 540 500 l 1
 540 420 l 1
 205 90 l 1
 550 90 l 1
 550 0 l 1
 60 0 l 1
245 625 m 0
 245 661 269 685 305 685 c 0
 341 685 365 661 365 625 c 0
 365 589 341 565 305 565 c 0
 269 565 245 589 245 625 c 0
EndSplineSet
Validated: 1
EndChar

StartChar: Thorn
Encoding: 222 222 132
Width: 635
GlyphClass: 1
Flags: W
LayerCount: 2
Fore
SplineSet
75 0 m 1
 75 500 l 1
 175 500 l 1
 175 400 l 1
 435 400 l 2
 525 400 585 340 585 250 c 0
 585 164 524 105 435 105 c 2
 175 105 l 1
 175 0 l 1
 75 0 l 1
175 310 m 1
 175 195 l 1
 435 195 l 2
 465 195 485 215 485 245 c 2
 485 260 l 2
 485 290 464 310 434 310 c 2
 175 310 l 1
EndSplineSet
Validated: 1
EndChar

StartChar: aacute
Encoding: 225 225 133
Width: 620
GlyphClass: 1
Flags: W
LayerCount: 2
Fore
SplineSet
136 0 m 1
 30 0 l 1
 235 500 l 1
 385 500 l 1
 590 0 l 1
 482 0 l 1
 441 100 l 1
 177 100 l 1
 136 0 l 1
304 410 m 1
 214 190 l 1
 404 190 l 1
 314 410 l 1
 304 410 l 1
261 577 m 1
 236 645 l 1
 435 735 l 1
 472 642 l 1
 261 577 l 1
EndSplineSet
Validated: 1
EndChar

StartChar: acircumflex
Encoding: 226 226 134
Width: 620
GlyphClass: 1
Flags: W
LayerCount: 2
Fore
SplineSet
136 0 m 1
 30 0 l 1
 235 500 l 1
 385 500 l 1
 590 0 l 1
 482 0 l 1
 441 100 l 1
 177 100 l 1
 136 0 l 1
180 572 m 1
 150 630 l 1
 274 715 l 1
 347 715 l 1
 471 630 l 1
 441 572 l 1
 311 627 l 1
 180 572 l 1
304 410 m 1
 214 190 l 1
 404 190 l 1
 314 410 l 1
 304 410 l 1
EndSplineSet
Validated: 1
EndChar

StartChar: adieresis
Encoding: 228 228 135
Width: 620
GlyphClass: 1
Flags: W
LayerCount: 2
Fore
SplineSet
136 0 m 1
 30 0 l 1
 235 500 l 1
 385 500 l 1
 590 0 l 1
 482 0 l 1
 441 100 l 1
 177 100 l 1
 136 0 l 1
304 410 m 1
 214 190 l 1
 404 190 l 1
 314 410 l 1
 304 410 l 1
415 565 m 0
 379 565 355 589 355 625 c 0
 355 661 379 685 415 685 c 0
 451 685 475 661 475 625 c 0
 475 589 451 565 415 565 c 0
205 565 m 0
 169 565 145 589 145 625 c 0
 145 661 169 685 205 685 c 0
 241 685 265 661 265 625 c 0
 265 589 241 565 205 565 c 0
EndSplineSet
Validated: 1
EndChar

StartChar: agrave
Encoding: 224 224 136
Width: 620
GlyphClass: 1
Flags: W
LayerCount: 2
Fore
SplineSet
136 0 m 1
 30 0 l 1
 235 500 l 1
 385 500 l 1
 590 0 l 1
 482 0 l 1
 441 100 l 1
 177 100 l 1
 136 0 l 1
304 410 m 1
 214 190 l 1
 404 190 l 1
 314 410 l 1
 304 410 l 1
353 577 m 1
 142 642 l 1
 179 735 l 1
 378 645 l 1
 353 577 l 1
EndSplineSet
Validated: 1
EndChar

StartChar: Amacron
Encoding: 256 256 137
Width: 620
GlyphClass: 1
Flags: W
LayerCount: 2
Fore
SplineSet
136 0 m 1
 30 0 l 1
 235 500 l 1
 385 500 l 1
 590 0 l 1
 482 0 l 1
 441 100 l 1
 177 100 l 1
 136 0 l 1
160 580 m 1
 160 670 l 1
 460 670 l 1
 460 580 l 1
 160 580 l 1
304 410 m 1
 214 190 l 1
 404 190 l 1
 314 410 l 1
 304 410 l 1
EndSplineSet
Validated: 1
EndChar

StartChar: aring
Encoding: 229 229 138
Width: 620
GlyphClass: 1
Flags: W
LayerCount: 2
Fore
SplineSet
136 0 m 1
 30 0 l 1
 235 500 l 1
 385 500 l 1
 590 0 l 1
 482 0 l 1
 441 100 l 1
 177 100 l 1
 136 0 l 1
310 540 m 0
 261 540 225 576 225 625 c 0
 225 674 261 710 310 710 c 0
 359 710 395 674 395 625 c 0
 395 576 359 540 310 540 c 0
304 410 m 1
 214 190 l 1
 404 190 l 1
 314 410 l 1
 304 410 l 1
EndSplineSet
Validated: 1
EndChar

StartChar: ae
Encoding: 230 230 139
Width: 733
GlyphClass: 1
Flags: W
LayerCount: 2
Fore
SplineSet
30 0 m 1
 174 500 l 1
 658 500 l 1
 658 410 l 1
 368 410 l 1
 401 295 l 1
 558 295 l 1
 558 205 l 1
 427 205 l 1
 460 90 l 1
 658 90 l 1
 658 0 l 1
 380 0 l 1
 351 100 l 1
 163 100 l 1
 134 0 l 1
 30 0 l 1
189 190 m 1
 325 190 l 1
 262 410 l 1
 252 410 l 1
 189 190 l 1
EndSplineSet
Validated: 1
EndChar

StartChar: cacute
Encoding: 263 263 140
Width: 617
GlyphClass: 1
Flags: W
LayerCount: 2
Fore
SplineSet
310 -10 m 0
 160 -10 50 100 50 250 c 0
 50 400 160 510 310 510 c 0
 445 510 547 422 567 295 c 1
 460 295 l 1
 443 366 385 415 310 415 c 0
 220 415 155 345 155 250 c 0
 155 155 220 85 310 85 c 0
 385 85 443 134 460 205 c 1
 567 205 l 1
 547 78 445 -10 310 -10 c 0
212 645 m 1
 411 735 l 1
 448 642 l 1
 237 577 l 1
 212 645 l 1
EndSplineSet
Validated: 1
EndChar

StartChar: ccaron
Encoding: 269 269 141
Width: 617
GlyphClass: 1
Flags: W
LayerCount: 2
Fore
SplineSet
310 -10 m 0
 160 -10 50 100 50 250 c 0
 50 400 160 510 310 510 c 0
 445 510 547 422 567 295 c 1
 460 295 l 1
 443 366 385 415 310 415 c 0
 220 415 155 345 155 250 c 0
 155 155 220 85 310 85 c 0
 385 85 443 134 460 205 c 1
 567 205 l 1
 547 78 445 -10 310 -10 c 0
272 577 m 1
 148 662 l 1
 178 720 l 1
 309 665 l 1
 439 720 l 1
 469 662 l 1
 345 577 l 1
 272 577 l 1
EndSplineSet
Validated: 1
EndChar

StartChar: ccedilla
Encoding: 231 231 142
Width: 617
GlyphClass: 1
Flags: W
LayerCount: 2
Fore
SplineSet
50 250 m 0
 50 400 160 510 310 510 c 0
 445 510 547 422 567 295 c 1
 460 295 l 1
 443 366 385 415 310 415 c 0
 220 415 155 345 155 250 c 0
 155 155 220 85 310 85 c 0
 385 85 443 134 460 205 c 1
 567 205 l 1
 549 94 469 12 358 -6 c 1
 358 -100 l 1
 258 -100 l 1
 258 -5 l 1
 135 17 50 118 50 250 c 0
EndSplineSet
Validated: 1
EndChar

StartChar: ccircumflex
Encoding: 265 265 143
Width: 617
GlyphClass: 1
Flags: W
LayerCount: 2
Fore
SplineSet
310 -10 m 0
 160 -10 50 100 50 250 c 0
 50 400 160 510 310 510 c 0
 445 510 547 422 567 295 c 1
 460 295 l 1
 443 366 385 415 310 415 c 0
 220 415 155 345 155 250 c 0
 155 155 220 85 310 85 c 0
 385 85 443 134 460 205 c 1
 567 205 l 1
 547 78 445 -10 310 -10 c 0
178 572 m 1
 148 630 l 1
 272 715 l 1
 345 715 l 1
 469 630 l 1
 439 572 l 1
 309 627 l 1
 178 572 l 1
EndSplineSet
Validated: 1
EndChar

StartChar: cdotaccent
Encoding: 267 267 144
Width: 617
GlyphClass: 1
Flags: W
LayerCount: 2
Fore
SplineSet
310 -10 m 0
 160 -10 50 100 50 250 c 0
 50 400 160 510 310 510 c 0
 445 510 547 422 567 295 c 1
 460 295 l 1
 443 366 385 415 310 415 c 0
 220 415 155 345 155 250 c 0
 155 155 220 85 310 85 c 0
 385 85 443 134 460 205 c 1
 567 205 l 1
 547 78 445 -10 310 -10 c 0
248 625 m 0
 248 661 272 685 308 685 c 0
 344 685 368 661 368 625 c 0
 368 589 344 565 308 565 c 0
 272 565 248 589 248 625 c 0
EndSplineSet
Validated: 1
EndChar

StartChar: dcaron
Encoding: 271 271 145
Width: 635
GlyphClass: 1
Flags: W
LayerCount: 2
Fore
SplineSet
75 500 m 1
 325 500 l 2
 475 500 585 395 585 250 c 0
 585 106 475 0 325 0 c 2
 75 0 l 1
 75 500 l 1
175 410 m 1
 175 90 l 1
 325 90 l 2
 415 90 480 157 480 250 c 0
 480 342 415 410 325 410 c 2
 175 410 l 1
271 577 m 1
 147 662 l 1
 177 720 l 1
 308 665 l 1
 438 720 l 1
 468 662 l 1
 344 577 l 1
 271 577 l 1
EndSplineSet
Validated: 1
EndChar

StartChar: eacute
Encoding: 233 233 146
Width: 625
GlyphClass: 1
Flags: W
LayerCount: 2
Fore
SplineSet
75 0 m 1
 75 500 l 1
 565 500 l 1
 565 410 l 1
 175 410 l 1
 175 295 l 1
 465 295 l 1
 465 205 l 1
 175 205 l 1
 175 90 l 1
 565 90 l 1
 565 0 l 1
 75 0 l 1
264 577 m 1
 239 645 l 1
 438 735 l 1
 475 642 l 1
 264 577 l 1
EndSplineSet
Validated: 1
EndChar

StartChar: ecaron
Encoding: 283 283 147
Width: 625
GlyphClass: 1
Flags: W
LayerCount: 2
Fore
SplineSet
75 500 m 1
 565 500 l 1
 565 410 l 1
 175 410 l 1
 175 295 l 1
 465 295 l 1
 465 205 l 1
 175 205 l 1
 175 90 l 1
 565 90 l 1
 565 0 l 1
 75 0 l 1
 75 500 l 1
152 662 m 1
 182 720 l 1
 313 665 l 1
 443 720 l 1
 473 662 l 1
 349 577 l 1
 276 577 l 1
 152 662 l 1
EndSplineSet
Validated: 1
EndChar

StartChar: ecircumflex
Encoding: 234 234 148
Width: 625
GlyphClass: 1
Flags: W
LayerCount: 2
Fore
SplineSet
75 500 m 1
 565 500 l 1
 565 410 l 1
 175 410 l 1
 175 295 l 1
 465 295 l 1
 465 205 l 1
 175 205 l 1
 175 90 l 1
 565 90 l 1
 565 0 l 1
 75 0 l 1
 75 500 l 1
152 630 m 1
 276 715 l 1
 349 715 l 1
 473 630 l 1
 443 572 l 1
 313 627 l 1
 182 572 l 1
 152 630 l 1
EndSplineSet
Validated: 1
EndChar

StartChar: edieresis
Encoding: 235 235 149
Width: 625
GlyphClass: 1
Flags: W
LayerCount: 2
Fore
SplineSet
75 500 m 1
 565 500 l 1
 565 410 l 1
 175 410 l 1
 175 295 l 1
 465 295 l 1
 465 205 l 1
 175 205 l 1
 175 90 l 1
 565 90 l 1
 565 0 l 1
 75 0 l 1
 75 500 l 1
418 565 m 0
 382 565 358 589 358 625 c 0
 358 661 382 685 418 685 c 0
 454 685 478 661 478 625 c 0
 478 589 454 565 418 565 c 0
208 565 m 0
 172 565 148 589 148 625 c 0
 148 661 172 685 208 685 c 0
 244 685 268 661 268 625 c 0
 268 589 244 565 208 565 c 0
EndSplineSet
Validated: 1
EndChar

StartChar: Edotaccent
Encoding: 278 278 150
Width: 625
GlyphClass: 1
Flags: W
LayerCount: 2
Fore
SplineSet
75 500 m 1
 565 500 l 1
 565 410 l 1
 175 410 l 1
 175 295 l 1
 465 295 l 1
 465 205 l 1
 175 205 l 1
 175 90 l 1
 565 90 l 1
 565 0 l 1
 75 0 l 1
 75 500 l 1
253 625 m 0
 253 661 277 685 313 685 c 0
 349 685 373 661 373 625 c 0
 373 589 349 565 313 565 c 0
 277 565 253 589 253 625 c 0
EndSplineSet
Validated: 1
EndChar

StartChar: egrave
Encoding: 232 232 151
Width: 625
GlyphClass: 1
Flags: W
LayerCount: 2
Fore
SplineSet
75 0 m 1
 75 500 l 1
 565 500 l 1
 565 410 l 1
 175 410 l 1
 175 295 l 1
 465 295 l 1
 465 205 l 1
 175 205 l 1
 175 90 l 1
 565 90 l 1
 565 0 l 1
 75 0 l 1
396 577 m 1
 185 642 l 1
 222 735 l 1
 421 645 l 1
 396 577 l 1
EndSplineSet
Validated: 1
EndChar

StartChar: Emacron
Encoding: 274 274 152
Width: 625
GlyphClass: 1
Flags: W
LayerCount: 2
Fore
SplineSet
75 0 m 1
 75 500 l 1
 565 500 l 1
 565 410 l 1
 175 410 l 1
 175 295 l 1
 465 295 l 1
 465 205 l 1
 175 205 l 1
 175 90 l 1
 565 90 l 1
 565 0 l 1
 75 0 l 1
463 580 m 1
 163 580 l 1
 163 670 l 1
 463 670 l 1
 463 580 l 1
EndSplineSet
Validated: 1
EndChar

StartChar: eth
Encoding: 240 240 153
Width: 635
GlyphClass: 1
Flags: W
LayerCount: 2
Fore
SplineSet
75 205 m 1
 25 205 l 1
 25 295 l 1
 75 295 l 1
 75 500 l 1
 325 500 l 2
 475 500 585 395 585 250 c 0
 585 106 475 0 325 0 c 2
 75 0 l 1
 75 205 l 1
325 205 m 1
 175 205 l 1
 175 90 l 1
 325 90 l 2
 415 90 480 157 480 250 c 0
 480 342 415 410 325 410 c 2
 175 410 l 1
 175 295 l 1
 325 295 l 1
 325 205 l 1
EndSplineSet
Validated: 1
EndChar

StartChar: Gdotaccent
Encoding: 288 288 154
Width: 620
GlyphClass: 1
Flags: W
LayerCount: 2
Fore
SplineSet
50 250 m 0
 50 400 160 510 310 510 c 0
 385 510 450 483 496 437 c 1
 424 365 l 1
 397 396 357 415 310 415 c 0
 220 415 155 345 155 250 c 0
 155 155 220 85 310 85 c 0
 383 85 440 131 459 200 c 1
 310 200 l 1
 310 290 l 1
 567 290 l 1
 569 277 570 264 570 250 c 0
 570 100 460 -10 310 -10 c 0
 160 -10 50 100 50 250 c 0
250 625 m 0
 250 661 274 685 310 685 c 0
 346 685 370 661 370 625 c 0
 370 589 346 565 310 565 c 0
 274 565 250 589 250 625 c 0
EndSplineSet
Validated: 1
EndChar

StartChar: gcircumflex
Encoding: 285 285 155
Width: 620
GlyphClass: 1
Flags: W
LayerCount: 2
Fore
SplineSet
50 250 m 0
 50 400 160 510 310 510 c 0
 385 510 450 483 496 437 c 1
 424 365 l 1
 397 396 357 415 310 415 c 0
 220 415 155 345 155 250 c 0
 155 155 220 85 310 85 c 0
 383 85 440 131 459 200 c 1
 310 200 l 1
 310 290 l 1
 567 290 l 1
 569 277 570 264 570 250 c 0
 570 100 460 -10 310 -10 c 0
 160 -10 50 100 50 250 c 0
180 572 m 1
 150 630 l 1
 274 715 l 1
 347 715 l 1
 471 630 l 1
 441 572 l 1
 311 627 l 1
 180 572 l 1
EndSplineSet
Validated: 1
EndChar

StartChar: hcircumflex
Encoding: 293 293 156
Width: 650
GlyphClass: 1
Flags: W
LayerCount: 2
Fore
SplineSet
175 0 m 1
 75 0 l 1
 75 500 l 1
 175 500 l 1
 175 295 l 1
 475 295 l 1
 475 500 l 1
 575 500 l 1
 575 0 l 1
 475 0 l 1
 475 205 l 1
 175 205 l 1
 175 0 l 1
165 630 m 1
 289 715 l 1
 362 715 l 1
 486 630 l 1
 456 572 l 1
 326 627 l 1
 195 572 l 1
 165 630 l 1
EndSplineSet
Validated: 1
EndChar

StartChar: iacute
Encoding: 237 237 157
Width: 250
GlyphClass: 1
Flags: W
LayerCount: 2
Fore
SplineSet
75 500 m 1
 175 500 l 1
 175 0 l 1
 75 0 l 1
 75 500 l 1
56 645 m 1
 255 735 l 1
 292 642 l 1
 81 577 l 1
 56 645 l 1
EndSplineSet
Validated: 1
EndChar

StartChar: icircumflex
Encoding: 238 238 158
Width: 250
GlyphClass: 1
Flags: W
LayerCount: 2
Fore
SplineSet
75 500 m 1
 175 500 l 1
 175 0 l 1
 75 0 l 1
 75 500 l 1
-6 572 m 1
 -36 630 l 1
 89 715 l 1
 162 715 l 1
 286 630 l 1
 256 572 l 1
 126 627 l 1
 -6 572 l 1
EndSplineSet
Validated: 1
EndChar

StartChar: idieresis
Encoding: 239 239 159
Width: 250
GlyphClass: 1
Flags: W
LayerCount: 2
Fore
SplineSet
75 500 m 1
 175 500 l 1
 175 0 l 1
 75 0 l 1
 75 500 l 1
170 625 m 0
 170 661 194 685 230 685 c 0
 266 685 290 661 290 625 c 0
 290 589 266 565 230 565 c 0
 194 565 170 589 170 625 c 0
-40 625 m 0
 -40 661 -16 685 20 685 c 0
 56 685 80 661 80 625 c 0
 80 589 56 565 20 565 c 0
 -16 565 -40 589 -40 625 c 0
EndSplineSet
Validated: 1
EndChar

StartChar: igrave
Encoding: 236 236 160
Width: 250
GlyphClass: 1
Flags: W
LayerCount: 2
Fore
SplineSet
75 500 m 1
 175 500 l 1
 175 0 l 1
 75 0 l 1
 75 500 l 1
-43 642 m 1
 -6 735 l 1
 193 645 l 1
 168 577 l 1
 -43 642 l 1
EndSplineSet
Validated: 1
EndChar

StartChar: Imacron
Encoding: 298 298 161
Width: 250
GlyphClass: 1
Flags: W
LayerCount: 2
Fore
SplineSet
75 500 m 1
 175 500 l 1
 175 0 l 1
 75 0 l 1
 75 500 l 1
-25 580 m 1
 -25 670 l 1
 275 670 l 1
 275 580 l 1
 -25 580 l 1
EndSplineSet
Validated: 1
EndChar

StartChar: dotlessi
Encoding: 305 305 162
Width: 250
GlyphClass: 1
Flags: W
LayerCount: 2
Fore
SplineSet
75 500 m 1
 175 500 l 1
 175 0 l 1
 75 0 l 1
 75 500 l 1
EndSplineSet
Validated: 1
EndChar

StartChar: jcircumflex
Encoding: 309 309 163
Width: 540
GlyphClass: 1
Flags: W
LayerCount: 2
Fore
SplineSet
65 190 m 1
 165 190 l 1
 165 130 208 85 265 85 c 0
 322 85 365 130 365 190 c 2
 365 500 l 1
 465 500 l 1
 465 190 l 2
 465 75 380 -10 265 -10 c 0
 150 -10 65 75 65 190 c 1
270 572 m 1
 240 630 l 1
 364 715 l 1
 437 715 l 1
 561 630 l 1
 531 572 l 1
 401 627 l 1
 270 572 l 1
EndSplineSet
Validated: 1
EndChar

StartChar: lacute
Encoding: 314 314 164
Width: 515
GlyphClass: 1
Flags: W
LayerCount: 2
Fore
SplineSet
75 500 m 1
 175 500 l 1
 175 90 l 1
 475 90 l 1
 475 0 l 1
 75 0 l 1
 75 500 l 1
70 645 m 1
 269 735 l 1
 306 642 l 1
 95 577 l 1
 70 645 l 1
EndSplineSet
Validated: 1
EndChar

StartChar: lcaron
Encoding: 318 318 165
Width: 515
GlyphClass: 1
Flags: W
LayerCount: 2
Fore
SplineSet
75 500 m 1
 175 500 l 1
 175 90 l 1
 475 90 l 1
 475 0 l 1
 75 0 l 1
 75 500 l 1
350 450 m 2
 350 525 l 1
 450 525 l 1
 450 450 l 2
 450 386 420 330 420 330 c 1
 340 350 l 1
 340 350 350 396 350 450 c 2
EndSplineSet
Validated: 1
EndChar

StartChar: nacute
Encoding: 324 324 166
Width: 650
GlyphClass: 1
Flags: W
LayerCount: 2
Fore
SplineSet
175 0 m 1
 75 0 l 1
 75 500 l 1
 165 500 l 1
 475 155 l 1
 475 500 l 1
 575 500 l 1
 575 0 l 1
 485 0 l 1
 175 345 l 1
 175 0 l 1
242 577 m 1
 217 645 l 1
 416 735 l 1
 453 642 l 1
 242 577 l 1
EndSplineSet
Validated: 1
EndChar

StartChar: ncaron
Encoding: 328 328 167
Width: 650
GlyphClass: 1
Flags: W
LayerCount: 2
Fore
SplineSet
175 0 m 1
 75 0 l 1
 75 500 l 1
 165 500 l 1
 475 155 l 1
 475 500 l 1
 575 500 l 1
 575 0 l 1
 485 0 l 1
 175 345 l 1
 175 0 l 1
289 577 m 1
 165 662 l 1
 195 720 l 1
 326 665 l 1
 456 720 l 1
 486 662 l 1
 362 577 l 1
 289 577 l 1
EndSplineSet
Validated: 1
EndChar

StartChar: oacute
Encoding: 243 243 168
Width: 620
GlyphClass: 1
Flags: W
LayerCount: 2
Fore
SplineSet
50 250 m 0
 50 400 160 510 310 510 c 0
 460 510 570 400 570 250 c 0
 570 100 460 -10 310 -10 c 0
 160 -10 50 100 50 250 c 0
155 250 m 0
 155 155 220 85 310 85 c 0
 400 85 465 155 465 250 c 0
 465 345 400 415 310 415 c 0
 220 415 155 345 155 250 c 0
212 645 m 1
 411 735 l 1
 448 642 l 1
 237 577 l 1
 212 645 l 1
EndSplineSet
Validated: 1
EndChar

StartChar: ocircumflex
Encoding: 244 244 169
Width: 620
GlyphClass: 1
Flags: W
LayerCount: 2
Fore
SplineSet
50 250 m 0
 50 400 160 510 310 510 c 0
 460 510 570 400 570 250 c 0
 570 100 460 -10 310 -10 c 0
 160 -10 50 100 50 250 c 0
155 250 m 0
 155 155 220 85 310 85 c 0
 400 85 465 155 465 250 c 0
 465 345 400 415 310 415 c 0
 220 415 155 345 155 250 c 0
180 572 m 1
 150 630 l 1
 274 715 l 1
 347 715 l 1
 471 630 l 1
 441 572 l 1
 311 627 l 1
 180 572 l 1
EndSplineSet
Validated: 1
EndChar

StartChar: odieresis
Encoding: 246 246 170
Width: 620
GlyphClass: 1
Flags: W
LayerCount: 2
Fore
SplineSet
50 250 m 0
 50 400 160 510 310 510 c 0
 460 510 570 400 570 250 c 0
 570 100 460 -10 310 -10 c 0
 160 -10 50 100 50 250 c 0
155 250 m 0
 155 155 220 85 310 85 c 0
 400 85 465 155 465 250 c 0
 465 345 400 415 310 415 c 0
 220 415 155 345 155 250 c 0
355 625 m 0
 355 661 379 685 415 685 c 0
 451 685 475 661 475 625 c 0
 475 589 451 565 415 565 c 0
 379 565 355 589 355 625 c 0
145 625 m 0
 145 661 169 685 205 685 c 0
 241 685 265 661 265 625 c 0
 265 589 241 565 205 565 c 0
 169 565 145 589 145 625 c 0
EndSplineSet
Validated: 1
EndChar

StartChar: ograve
Encoding: 242 242 171
Width: 620
GlyphClass: 1
Flags: W
LayerCount: 2
Fore
SplineSet
50 250 m 0
 50 400 160 510 310 510 c 0
 460 510 570 400 570 250 c 0
 570 100 460 -10 310 -10 c 0
 160 -10 50 100 50 250 c 0
155 250 m 0
 155 155 220 85 310 85 c 0
 400 85 465 155 465 250 c 0
 465 345 400 415 310 415 c 0
 220 415 155 345 155 250 c 0
132 642 m 1
 169 735 l 1
 368 645 l 1
 343 577 l 1
 132 642 l 1
EndSplineSet
Validated: 1
EndChar

StartChar: Omacron
Encoding: 332 332 172
Width: 620
GlyphClass: 1
Flags: W
LayerCount: 2
Fore
SplineSet
50 250 m 0
 50 400 160 510 310 510 c 0
 460 510 570 400 570 250 c 0
 570 100 460 -10 310 -10 c 0
 160 -10 50 100 50 250 c 0
155 250 m 0
 155 155 220 85 310 85 c 0
 400 85 465 155 465 250 c 0
 465 345 400 415 310 415 c 0
 220 415 155 345 155 250 c 0
160 580 m 1
 160 670 l 1
 460 670 l 1
 460 580 l 1
 160 580 l 1
EndSplineSet
Validated: 1
EndChar

StartChar: oslash
Encoding: 248 248 173
Width: 629
GlyphClass: 1
Flags: W
LayerCount: 2
Fore
SplineSet
50 39 m 1
 90 79 l 2
 91 80 93 82 94 83 c 0
 97 86 101 89 104 93 c 1
 73 136 55 190 55 250 c 0
 55 400 164 510 315 510 c 0
 375 510 429 492 473 461 c 1
 476 464 479 468 482 471 c 0
 483 472 485 474 486 475 c 2
 526 515 l 1
 579 461 l 1
 539 421 l 2
 535 417 530 413 525 409 c 1
 557 366 575 311 575 250 c 0
 575 100 465 -10 315 -10 c 0
 254 -10 200 8 158 39 c 0
 157 39 157 39 156 40 c 1
 152 34 148 29 144 25 c 2
 104 -15 l 1
 50 39 l 1
315 85 m 0
 404 85 470 155 470 250 c 0
 470 281 463 310 450 334 c 1
 445 327 439 320 434 315 c 2
 245 126 l 2
 240 121 234 116 228 111 c 1
 253 94 283 85 315 85 c 0
196 185 m 2
 401 390 l 1
 376 406 347 415 315 415 c 0
 225 415 160 345 160 250 c 0
 160 220 167 192 179 168 c 1
 185 173 191 180 196 185 c 2
EndSplineSet
Validated: 1
Substitution2: "'ss01' Style Set 1 in Latin lookup 1 subtable" Oslash.ss01
EndChar

StartChar: racute
Encoding: 341 341 174
Width: 640
GlyphClass: 1
Flags: W
LayerCount: 2
Fore
SplineSet
175 0 m 1
 75 0 l 1
 75 500 l 1
 435 500 l 2
 525 500 585 440 585 350 c 0
 585 270 533 214 454 206 c 1
 461 198 468 189 472 182 c 2
 585 0 l 1
 472 0 l 1
 345 205 l 1
 175 205 l 1
 175 0 l 1
175 410 m 1
 175 295 l 1
 435 295 l 2
 465 295 485 315 485 345 c 2
 485 360 l 2
 485 390 465 410 435 410 c 2
 175 410 l 1
227 577 m 1
 202 645 l 1
 401 735 l 1
 438 642 l 1
 227 577 l 1
EndSplineSet
Validated: 1
EndChar

StartChar: rcaron
Encoding: 345 345 175
Width: 640
GlyphClass: 1
Flags: W
LayerCount: 2
Fore
SplineSet
75 500 m 1
 435 500 l 2
 525 500 585 440 585 350 c 0
 585 270 533 214 454 206 c 1
 461 198 468 189 472 182 c 2
 585 0 l 1
 472 0 l 1
 345 205 l 1
 175 205 l 1
 175 0 l 1
 75 0 l 1
 75 500 l 1
175 295 m 1
 435 295 l 2
 465 295 485 315 485 345 c 2
 485 360 l 2
 485 390 465 410 435 410 c 2
 175 410 l 1
 175 295 l 1
284 577 m 1
 160 662 l 1
 190 720 l 1
 321 665 l 1
 451 720 l 1
 481 662 l 1
 357 577 l 1
 284 577 l 1
EndSplineSet
Validated: 1
EndChar

StartChar: sacute
Encoding: 347 347 176
Width: 580
GlyphClass: 1
Flags: W
LayerCount: 2
Fore
SplineSet
50 150 m 1
 150 150 l 1
 150 108 206 80 290 80 c 0
 381 80 430 106 430 153 c 0
 430 193 386 210 286 210 c 0
 128 210 60 252 60 353 c 0
 60 455 140 510 290 510 c 0
 428 510 520 446 520 350 c 1
 420 350 l 1
 420 392 368 420 290 420 c 0
 205 420 160 397 160 353 c 0
 160 315 200 300 295 300 c 0
 460 300 530 255 530 153 c 0
 530 47 446 -10 290 -10 c 0
 146 -10 50 54 50 150 c 1
182 645 m 1
 381 735 l 1
 418 642 l 1
 207 577 l 1
 182 645 l 1
EndSplineSet
Validated: 1
EndChar

StartChar: scaron
Encoding: 353 353 177
Width: 580
GlyphClass: 1
Flags: W
LayerCount: 2
Fore
SplineSet
50 150 m 1
 150 150 l 1
 150 108 206 80 290 80 c 0
 381 80 430 106 430 153 c 0
 430 193 386 210 286 210 c 0
 128 210 60 252 60 353 c 0
 60 455 140 510 290 510 c 0
 428 510 520 446 520 350 c 1
 420 350 l 1
 420 392 368 420 290 420 c 0
 205 420 160 397 160 353 c 0
 160 315 200 300 295 300 c 0
 460 300 530 255 530 153 c 0
 530 47 446 -10 290 -10 c 0
 146 -10 50 54 50 150 c 1
254 577 m 1
 130 662 l 1
 160 720 l 1
 291 665 l 1
 421 720 l 1
 451 662 l 1
 327 577 l 1
 254 577 l 1
EndSplineSet
Validated: 1
EndChar

StartChar: scedilla
Encoding: 351 351 178
Width: 580
GlyphClass: 1
Flags: W
LayerCount: 2
Fore
SplineSet
240 -7 m 1
 124 6 50 66 50 150 c 1
 150 150 l 1
 150 108 206 80 290 80 c 0
 381 80 430 106 430 153 c 0
 430 193 386 210 286 210 c 0
 128 210 60 252 60 353 c 0
 60 455 140 510 290 510 c 0
 428 510 520 446 520 350 c 1
 420 350 l 1
 420 392 368 420 290 420 c 0
 205 420 160 397 160 353 c 0
 160 315 200 300 295 300 c 0
 460 300 530 255 530 153 c 0
 530 59 464 3 340 -8 c 1
 340 -100 l 1
 240 -100 l 1
 240 -7 l 1
EndSplineSet
Validated: 1
EndChar

StartChar: scircumflex
Encoding: 349 349 179
Width: 580
GlyphClass: 1
Flags: W
LayerCount: 2
Fore
SplineSet
50 150 m 1
 150 150 l 1
 150 108 206 80 290 80 c 0
 381 80 430 106 430 153 c 0
 430 193 386 210 286 210 c 0
 128 210 60 252 60 353 c 0
 60 455 140 510 290 510 c 0
 428 510 520 446 520 350 c 1
 420 350 l 1
 420 392 368 420 290 420 c 0
 205 420 160 397 160 353 c 0
 160 315 200 300 295 300 c 0
 460 300 530 255 530 153 c 0
 530 47 446 -10 290 -10 c 0
 146 -10 50 54 50 150 c 1
160 572 m 1
 130 630 l 1
 254 715 l 1
 327 715 l 1
 451 630 l 1
 421 572 l 1
 291 627 l 1
 160 572 l 1
EndSplineSet
Validated: 1
EndChar

StartChar: tbar
Encoding: 359 359 180
Width: 580
GlyphClass: 1
Flags: W
LayerCount: 2
Fore
SplineSet
40 410 m 1
 40 500 l 1
 540 500 l 1
 540 410 l 1
 340 410 l 1
 340 295 l 1
 440 295 l 1
 440 205 l 1
 340 205 l 1
 340 0 l 1
 240 0 l 1
 240 205 l 1
 140 205 l 1
 140 295 l 1
 240 295 l 1
 240 410 l 1
 40 410 l 1
EndSplineSet
Validated: 1
EndChar

StartChar: tcaron
Encoding: 357 357 181
Width: 580
GlyphClass: 1
Flags: W
LayerCount: 2
Fore
SplineSet
40 500 m 1
 540 500 l 1
 540 410 l 1
 340 410 l 1
 340 0 l 1
 240 0 l 1
 240 410 l 1
 40 410 l 1
 40 500 l 1
130 662 m 1
 160 720 l 1
 291 665 l 1
 421 720 l 1
 451 662 l 1
 327 577 l 1
 254 577 l 1
 130 662 l 1
EndSplineSet
Validated: 1
EndChar

StartChar: uni0163
Encoding: 355 355 182
Width: 580
GlyphClass: 1
Flags: W
LayerCount: 2
Fore
SplineSet
40 500 m 1
 540 500 l 1
 540 410 l 1
 340 410 l 1
 340 -100 l 1
 240 -100 l 1
 240 410 l 1
 40 410 l 1
 40 500 l 1
EndSplineSet
Validated: 1
EndChar

StartChar: uacute
Encoding: 250 250 183
Width: 630
GlyphClass: 1
Flags: W
LayerCount: 2
Fore
SplineSet
75 500 m 1
 175 500 l 1
 175 240 l 2
 175 150 234 85 315 85 c 0
 396 85 455 150 455 240 c 2
 455 500 l 1
 555 500 l 1
 555 240 l 2
 555 96 453 -10 315 -10 c 0
 177 -10 75 96 75 240 c 2
 75 500 l 1
211 645 m 1
 410 735 l 1
 447 642 l 1
 236 577 l 1
 211 645 l 1
EndSplineSet
Validated: 1
EndChar

StartChar: ucircumflex
Encoding: 251 251 184
Width: 630
GlyphClass: 1
Flags: W
LayerCount: 2
Fore
SplineSet
75 500 m 1
 175 500 l 1
 175 240 l 2
 175 150 234 85 315 85 c 0
 396 85 455 150 455 240 c 2
 455 500 l 1
 555 500 l 1
 555 240 l 2
 555 96 453 -10 315 -10 c 0
 177 -10 75 96 75 240 c 2
 75 500 l 1
155 630 m 1
 279 715 l 1
 352 715 l 1
 476 630 l 1
 446 572 l 1
 316 627 l 1
 185 572 l 1
 155 630 l 1
EndSplineSet
Validated: 1
EndChar

StartChar: udieresis
Encoding: 252 252 185
Width: 630
GlyphClass: 1
Flags: W
LayerCount: 2
Fore
SplineSet
75 240 m 2
 75 500 l 1
 175 500 l 1
 175 240 l 2
 175 150 234 85 315 85 c 0
 396 85 455 150 455 240 c 2
 455 500 l 1
 555 500 l 1
 555 240 l 2
 555 96 453 -10 315 -10 c 0
 177 -10 75 96 75 240 c 2
360 625 m 0
 360 661 384 685 420 685 c 0
 456 685 480 661 480 625 c 0
 480 589 456 565 420 565 c 0
 384 565 360 589 360 625 c 0
150 625 m 0
 150 661 174 685 210 685 c 0
 246 685 270 661 270 625 c 0
 270 589 246 565 210 565 c 0
 174 565 150 589 150 625 c 0
EndSplineSet
Validated: 1
EndChar

StartChar: ugrave
Encoding: 249 249 186
Width: 630
GlyphClass: 1
Flags: W
LayerCount: 2
Fore
SplineSet
75 500 m 1
 175 500 l 1
 175 240 l 2
 175 150 234 85 315 85 c 0
 396 85 455 150 455 240 c 2
 455 500 l 1
 555 500 l 1
 555 240 l 2
 555 96 453 -10 315 -10 c 0
 177 -10 75 96 75 240 c 2
 75 500 l 1
157 642 m 1
 194 735 l 1
 393 645 l 1
 368 577 l 1
 157 642 l 1
EndSplineSet
Validated: 1
EndChar

StartChar: Umacron
Encoding: 362 362 187
Width: 630
GlyphClass: 1
Flags: W
LayerCount: 2
Fore
SplineSet
75 500 m 1
 175 500 l 1
 175 240 l 2
 175 150 234 85 315 85 c 0
 396 85 455 150 455 240 c 2
 455 500 l 1
 555 500 l 1
 555 240 l 2
 555 96 453 -10 315 -10 c 0
 177 -10 75 96 75 240 c 2
 75 500 l 1
165 670 m 1
 465 670 l 1
 465 580 l 1
 165 580 l 1
 165 670 l 1
EndSplineSet
Validated: 1
EndChar

StartChar: uring
Encoding: 367 367 188
Width: 630
GlyphClass: 1
Flags: W
LayerCount: 2
Fore
SplineSet
75 240 m 2
 75 500 l 1
 175 500 l 1
 175 240 l 2
 175 150 234 85 315 85 c 0
 396 85 455 150 455 240 c 2
 455 500 l 1
 555 500 l 1
 555 240 l 2
 555 96 453 -10 315 -10 c 0
 177 -10 75 96 75 240 c 2
315 540 m 0
 266 540 230 576 230 625 c 0
 230 674 266 710 315 710 c 0
 364 710 400 674 400 625 c 0
 400 576 364 540 315 540 c 0
EndSplineSet
Validated: 1
EndChar

StartChar: wacute
Encoding: 7811 7811 189
Width: 670
GlyphClass: 1
Flags: W
LayerCount: 2
Fore
SplineSet
100 0 m 1
 40 500 l 1
 138 500 l 1
 181 130 l 1
 182 130 l 1
 182 130 193 190 219 251 c 2
 285 400 l 1
 385 400 l 1
 450 251 l 2
 477 191 488 130 488 130 c 1
 489 130 l 1
 532 500 l 1
 630 500 l 1
 570 0 l 1
 465 0 l 1
 376 201 l 2
 345 270 336 310 336 310 c 1
 334 310 l 1
 334 310 325 270 294 201 c 2
 205 0 l 1
 100 0 l 1
262 577 m 1
 237 645 l 1
 436 735 l 1
 473 642 l 1
 262 577 l 1
EndSplineSet
Validated: 1
EndChar

StartChar: wcircumflex
Encoding: 373 373 190
Width: 670
GlyphClass: 1
Flags: W
LayerCount: 2
Fore
SplineSet
100 0 m 1
 40 500 l 1
 138 500 l 1
 181 130 l 1
 182 130 l 1
 182 130 193 190 219 251 c 2
 285 400 l 1
 385 400 l 1
 450 251 l 2
 477 191 488 130 488 130 c 1
 489 130 l 1
 532 500 l 1
 630 500 l 1
 570 0 l 1
 465 0 l 1
 376 201 l 2
 345 270 336 310 336 310 c 1
 334 310 l 1
 334 310 325 270 294 201 c 2
 205 0 l 1
 100 0 l 1
175 630 m 1
 299 715 l 1
 372 715 l 1
 496 630 l 1
 466 572 l 1
 336 627 l 1
 205 572 l 1
 175 630 l 1
EndSplineSet
Validated: 1
EndChar

StartChar: wdieresis
Encoding: 7813 7813 191
Width: 670
GlyphClass: 1
Flags: W
LayerCount: 2
Fore
SplineSet
40 500 m 1
 138 500 l 1
 181 130 l 1
 182 130 l 1
 182 130 193 190 219 251 c 2
 285 400 l 1
 385 400 l 1
 450 251 l 2
 477 191 488 130 488 130 c 1
 489 130 l 1
 532 500 l 1
 630 500 l 1
 570 0 l 1
 465 0 l 1
 376 201 l 2
 345 270 336 310 336 310 c 1
 334 310 l 1
 334 310 325 270 294 201 c 2
 205 0 l 1
 100 0 l 1
 40 500 l 1
380 625 m 0
 380 661 404 685 440 685 c 0
 476 685 500 661 500 625 c 0
 500 589 476 565 440 565 c 0
 404 565 380 589 380 625 c 0
230 565 m 0
 194 565 170 589 170 625 c 0
 170 661 194 685 230 685 c 0
 266 685 290 661 290 625 c 0
 290 589 266 565 230 565 c 0
EndSplineSet
Validated: 1
EndChar

StartChar: wgrave
Encoding: 7809 7809 192
Width: 670
GlyphClass: 1
Flags: W
LayerCount: 2
Fore
SplineSet
100 0 m 1
 40 500 l 1
 138 500 l 1
 181 130 l 1
 182 130 l 1
 182 130 193 190 219 251 c 2
 285 400 l 1
 385 400 l 1
 450 251 l 2
 477 191 488 130 488 130 c 1
 489 130 l 1
 532 500 l 1
 630 500 l 1
 570 0 l 1
 465 0 l 1
 376 201 l 2
 345 270 336 310 336 310 c 1
 334 310 l 1
 334 310 325 270 294 201 c 2
 205 0 l 1
 100 0 l 1
167 642 m 1
 204 735 l 1
 403 645 l 1
 378 577 l 1
 167 642 l 1
EndSplineSet
Validated: 1
EndChar

StartChar: yacute
Encoding: 253 253 193
Width: 580
GlyphClass: 1
Flags: W
LayerCount: 2
Fore
SplineSet
30 500 m 1
 145 500 l 1
 243 350 l 2
 275 300 289 260 289 260 c 1
 291 260 l 1
 291 260 305 300 337 350 c 2
 434 500 l 1
 550 500 l 1
 340 175 l 1
 340 0 l 1
 240 0 l 1
 240 175 l 1
 30 500 l 1
231 577 m 1
 206 645 l 1
 405 735 l 1
 442 642 l 1
 231 577 l 1
EndSplineSet
Validated: 1
EndChar

StartChar: ycircumflex
Encoding: 375 375 194
Width: 580
GlyphClass: 1
Flags: W
LayerCount: 2
Fore
SplineSet
30 500 m 1
 145 500 l 1
 243 350 l 2
 275 300 289 260 289 260 c 1
 291 260 l 1
 291 260 305 300 337 350 c 2
 434 500 l 1
 550 500 l 1
 340 175 l 1
 340 0 l 1
 240 0 l 1
 240 175 l 1
 30 500 l 1
130 630 m 1
 254 715 l 1
 327 715 l 1
 451 630 l 1
 421 572 l 1
 291 627 l 1
 160 572 l 1
 130 630 l 1
EndSplineSet
Validated: 1
EndChar

StartChar: ydieresis
Encoding: 255 255 195
Width: 580
GlyphClass: 1
Flags: W
LayerCount: 2
Fore
SplineSet
240 175 m 1
 30 500 l 1
 145 500 l 1
 243 350 l 2
 275 300 289 260 289 260 c 1
 291 260 l 1
 291 260 305 300 337 350 c 2
 434 500 l 1
 550 500 l 1
 340 175 l 1
 340 0 l 1
 240 0 l 1
 240 175 l 1
335 625 m 0
 335 661 359 685 395 685 c 0
 431 685 455 661 455 625 c 0
 455 589 431 565 395 565 c 0
 359 565 335 589 335 625 c 0
125 625 m 0
 125 661 149 685 185 685 c 0
 221 685 245 661 245 625 c 0
 245 589 221 565 185 565 c 0
 149 565 125 589 125 625 c 0
EndSplineSet
Validated: 1
EndChar

StartChar: zacute
Encoding: 378 378 196
Width: 610
GlyphClass: 1
Flags: W
LayerCount: 2
Fore
SplineSet
60 0 m 1
 60 80 l 1
 394 410 l 1
 70 410 l 1
 70 500 l 1
 540 500 l 1
 540 420 l 1
 205 90 l 1
 550 90 l 1
 550 0 l 1
 60 0 l 1
187 645 m 1
 386 735 l 1
 423 642 l 1
 212 577 l 1
 187 645 l 1
EndSplineSet
Validated: 1
EndChar

StartChar: zcaron
Encoding: 382 382 197
Width: 610
GlyphClass: 1
Flags: W
LayerCount: 2
Fore
SplineSet
60 0 m 1
 60 80 l 1
 394 410 l 1
 70 410 l 1
 70 500 l 1
 540 500 l 1
 540 420 l 1
 205 90 l 1
 550 90 l 1
 550 0 l 1
 60 0 l 1
269 577 m 1
 145 662 l 1
 175 720 l 1
 306 665 l 1
 436 720 l 1
 466 662 l 1
 342 577 l 1
 269 577 l 1
EndSplineSet
Validated: 1
EndChar

StartChar: Zdotaccent
Encoding: 379 379 198
Width: 610
GlyphClass: 1
Flags: W
LayerCount: 2
Fore
SplineSet
60 0 m 1
 60 80 l 1
 394 410 l 1
 70 410 l 1
 70 500 l 1
 540 500 l 1
 540 420 l 1
 205 90 l 1
 550 90 l 1
 550 0 l 1
 60 0 l 1
245 625 m 0
 245 661 269 685 305 685 c 0
 341 685 365 661 365 625 c 0
 365 589 341 565 305 565 c 0
 269 565 245 589 245 625 c 0
EndSplineSet
Validated: 1
EndChar

StartChar: thorn
Encoding: 254 254 199
Width: 635
GlyphClass: 1
Flags: W
LayerCount: 2
Fore
SplineSet
75 0 m 1
 75 500 l 1
 175 500 l 1
 175 400 l 1
 435 400 l 2
 525 400 585 340 585 250 c 0
 585 164 524 105 435 105 c 2
 175 105 l 1
 175 0 l 1
 75 0 l 1
175 310 m 1
 175 195 l 1
 435 195 l 2
 465 195 485 215 485 245 c 2
 485 260 l 2
 485 290 464 310 434 310 c 2
 175 310 l 1
EndSplineSet
Validated: 1
EndChar

StartChar: period
Encoding: 46 46 200
Width: 260
GlyphClass: 1
Flags: W
LayerCount: 2
Fore
SplineSet
65 55 m 0
 65 94 91 120 130 120 c 0
 169 120 195 94 195 55 c 0
 195 16 169 -10 130 -10 c 0
 91 -10 65 16 65 55 c 0
EndSplineSet
Validated: 1
EndChar

StartChar: comma
Encoding: 44 44 201
Width: 260
GlyphClass: 1
Flags: W
LayerCount: 2
Fore
SplineSet
65 55 m 0
 65 94 91 120 130 120 c 0
 172 120 195 94 195 45 c 0
 195 -55 109 -110 109 -110 c 1
 74 -77 l 1
 74 -77 97 -52 111 -8 c 1
 83 0 65 23 65 55 c 0
EndSplineSet
Validated: 1
EndChar

StartChar: colon
Encoding: 58 58 202
Width: 260
GlyphClass: 1
Flags: W
LayerCount: 2
Fore
SplineSet
65 55 m 0
 65 94 91 120 130 120 c 0
 169 120 195 94 195 55 c 0
 195 16 169 -10 130 -10 c 0
 91 -10 65 16 65 55 c 0
65 350 m 0
 65 389 91 415 130 415 c 0
 169 415 195 389 195 350 c 0
 195 311 169 285 130 285 c 0
 91 285 65 311 65 350 c 0
EndSplineSet
Validated: 1
EndChar

StartChar: semicolon
Encoding: 59 59 203
Width: 260
GlyphClass: 1
Flags: W
LayerCount: 2
Fore
SplineSet
65 55 m 0
 65 94 91 120 130 120 c 0
 172 120 195 94 195 45 c 0
 195 -55 109 -110 109 -110 c 1
 74 -77 l 1
 74 -77 97 -52 111 -8 c 1
 83 0 65 23 65 55 c 0
65 350 m 0
 65 389 91 415 130 415 c 0
 169 415 195 389 195 350 c 0
 195 311 169 285 130 285 c 0
 91 285 65 311 65 350 c 0
EndSplineSet
Validated: 1
EndChar

StartChar: exclam
Encoding: 33 33 204
Width: 260
GlyphClass: 1
Flags: W
LayerCount: 2
Fore
SplineSet
65 55 m 0
 65 94 91 120 130 120 c 0
 169 120 195 94 195 55 c 0
 195 16 169 -10 130 -10 c 0
 91 -10 65 16 65 55 c 0
80 400 m 2
 80 500 l 1
 180 500 l 1
 180 400 l 2
 180 275 160 175 160 175 c 1
 100 175 l 1
 100 175 80 275 80 400 c 2
EndSplineSet
Validated: 1
EndChar

StartChar: question
Encoding: 63 63 205
Width: 580
GlyphClass: 1
Flags: W
LayerCount: 2
Fore
SplineSet
50 350 m 1
 50 446 146 510 290 510 c 0
 446 510 530 455 530 353 c 0
 530 261 471 218 332 211 c 1
 327 192 320 175 320 175 c 1
 260 175 l 1
 260 175 240 225 240 250 c 2
 240 300 l 1
 290 300 l 2
 388 300 430 315 430 353 c 0
 430 397 381 420 290 420 c 0
 206 420 150 392 150 350 c 1
 50 350 l 1
225 55 m 0
 225 94 251 120 290 120 c 0
 329 120 355 94 355 55 c 0
 355 16 329 -10 290 -10 c 0
 251 -10 225 16 225 55 c 0
EndSplineSet
Validated: 1
EndChar

StartChar: exclamdown
Encoding: 161 161 206
Width: 260
GlyphClass: 1
Flags: W
LayerCount: 2
Fore
SplineSet
65 445 m 0
 65 484 91 510 130 510 c 0
 169 510 195 484 195 445 c 0
 195 406 169 380 130 380 c 0
 91 380 65 406 65 445 c 0
180 0 m 1
 80 0 l 1
 80 100 l 2
 80 225 100 325 100 325 c 1
 160 325 l 1
 160 325 180 225 180 100 c 2
 180 0 l 1
EndSplineSet
Validated: 1
EndChar

StartChar: questiondown
Encoding: 191 191 207
Width: 580
GlyphClass: 1
Flags: W
LayerCount: 2
Fore
SplineSet
50 147 m 0
 50 239 109 282 248 289 c 1
 253 308 260 325 260 325 c 1
 320 325 l 1
 320 325 340 275 340 250 c 2
 340 200 l 1
 290 200 l 2
 192 200 150 185 150 147 c 0
 150 103 199 80 290 80 c 0
 374 80 430 108 430 150 c 1
 530 150 l 1
 530 54 434 -10 290 -10 c 0
 134 -10 50 45 50 147 c 0
290 380 m 0
 251 380 225 406 225 445 c 0
 225 484 251 510 290 510 c 0
 329 510 355 484 355 445 c 0
 355 406 329 380 290 380 c 0
EndSplineSet
Validated: 1
EndChar

StartChar: bullet
Encoding: 8226 8226 208
Width: 300
GlyphClass: 1
Flags: W
LayerCount: 2
Fore
SplineSet
50 250 m 0
 50 310 90 350 150 350 c 0
 210 350 250 310 250 250 c 0
 250 190 210 150 150 150 c 0
 90 150 50 190 50 250 c 0
EndSplineSet
Validated: 1
EndChar

StartChar: quoteleft
Encoding: 8216 8216 209
Width: 230
GlyphClass: 1
Flags: W
LayerCount: 2
Fore
SplineSet
180 345 m 0
 180 306 154 280 115 280 c 0
 76 280 50 310 50 355 c 0
 50 455 136 510 136 510 c 1
 171 477 l 1
 171 477 148 452 134 408 c 1
 162 400 180 377 180 345 c 0
EndSplineSet
Validated: 1
EndChar

StartChar: quoteright
Encoding: 8217 8217 210
Width: 230
GlyphClass: 1
Flags: W
LayerCount: 2
Fore
SplineSet
50 445 m 0
 50 484 76 510 115 510 c 0
 154 510 180 480 180 435 c 0
 180 335 94 280 94 280 c 1
 59 313 l 1
 59 313 82 338 96 382 c 1
 68 390 50 413 50 445 c 0
EndSplineSet
Validated: 1
EndChar

StartChar: quotedblleft
Encoding: 8220 8220 211
Width: 430
GlyphClass: 1
Flags: W
LayerCount: 2
Fore
SplineSet
180 345 m 0
 180 306 154 280 115 280 c 0
 76 280 50 310 50 355 c 0
 50 455 136 510 136 510 c 1
 171 477 l 1
 171 477 148 452 134 408 c 1
 162 400 180 377 180 345 c 0
380 345 m 0
 380 306 354 280 315 280 c 0
 276 280 250 310 250 355 c 0
 250 455 336 510 336 510 c 1
 371 477 l 1
 371 477 348 452 334 408 c 1
 362 400 380 377 380 345 c 0
EndSplineSet
Validated: 1
EndChar

StartChar: quotedblright
Encoding: 8221 8221 212
Width: 430
GlyphClass: 1
Flags: W
LayerCount: 2
Fore
SplineSet
50 445 m 0
 50 484 76 510 115 510 c 0
 154 510 180 479 180 435 c 0
 180 335 94 280 94 280 c 1
 59 313 l 1
 59 313 82 338 96 382 c 1
 68 390 50 413 50 445 c 0
250 445 m 0
 250 484 276 510 315 510 c 0
 354 510 380 479 380 435 c 0
 380 335 294 280 294 280 c 1
 259 313 l 1
 259 313 282 338 296 382 c 1
 268 390 250 413 250 445 c 0
EndSplineSet
Validated: 1
EndChar

StartChar: quotesinglbase
Encoding: 8218 8218 213
Width: 230
GlyphClass: 1
Flags: W
LayerCount: 2
Fore
SplineSet
50 150 m 0
 50 189 76 215 115 215 c 0
 154 215 180 185 180 140 c 0
 180 40 94 -15 94 -15 c 1
 59 18 l 1
 59 18 82 43 96 87 c 1
 68 95 50 118 50 150 c 0
EndSplineSet
Validated: 1
EndChar

StartChar: quotedblbase
Encoding: 8222 8222 214
Width: 430
GlyphClass: 1
Flags: W
LayerCount: 2
Fore
SplineSet
50 150 m 0
 50 189 76 215 115 215 c 0
 154 215 180 184 180 140 c 0
 180 40 94 -15 94 -15 c 1
 59 18 l 1
 59 18 82 43 96 87 c 1
 68 95 50 118 50 150 c 0
250 150 m 0
 250 189 276 215 315 215 c 0
 354 215 380 184 380 140 c 0
 380 40 294 -15 294 -15 c 1
 259 18 l 1
 259 18 282 43 296 87 c 1
 268 95 250 118 250 150 c 0
EndSplineSet
Validated: 1
EndChar

StartChar: quotesingle
Encoding: 39 39 215
Width: 230
GlyphClass: 1
Flags: W
LayerCount: 2
Fore
SplineSet
65 425 m 2
 65 500 l 1
 165 500 l 1
 165 425 l 2
 165 350 145 300 145 300 c 1
 85 300 l 1
 85 300 65 350 65 425 c 2
EndSplineSet
Validated: 1
EndChar

StartChar: quotedbl
Encoding: 34 34 216
Width: 380
GlyphClass: 1
Flags: W
LayerCount: 2
Fore
SplineSet
215 425 m 2
 215 500 l 1
 315 500 l 1
 315 425 l 2
 315 350 295 300 295 300 c 1
 235 300 l 1
 235 300 215 350 215 425 c 2
65 425 m 2
 65 500 l 1
 165 500 l 1
 165 425 l 2
 165 350 145 300 145 300 c 1
 85 300 l 1
 85 300 65 350 65 425 c 2
EndSplineSet
Validated: 1
EndChar

StartChar: periodcentered
Encoding: 183 183 217
Width: 260
GlyphClass: 1
Flags: W
LayerCount: 2
Fore
SplineSet
65 255 m 0
 65 294 91 320 130 320 c 0
 169 320 195 294 195 255 c 0
 195 216 169 190 130 190 c 0
 91 190 65 216 65 255 c 0
EndSplineSet
Validated: 1
EndChar

StartChar: parenleft
Encoding: 40 40 218
Width: 267
GlyphClass: 1
Flags: W
LayerCount: 2
Fore
SplineSet
169 612 m 1
 242 563 l 1
 242 563 150 443 150 250 c 0
 150 57 242 -63 242 -63 c 1
 169 -112 l 1
 169 -112 50 17 50 250 c 0
 50 483 169 612 169 612 c 1
EndSplineSet
Validated: 1
EndChar

StartChar: parenright
Encoding: 41 41 219
Width: 267
GlyphClass: 1
Flags: W
LayerCount: 2
Fore
SplineSet
98 -112 m 1
 25 -63 l 1
 25 -63 117 57 117 250 c 0
 117 443 25 563 25 563 c 1
 98 612 l 1
 98 612 217 483 217 250 c 0
 217 17 98 -112 98 -112 c 1
EndSplineSet
Validated: 1
EndChar

StartChar: bracketleft
Encoding: 91 91 220
Width: 296
GlyphClass: 1
Flags: W
LayerCount: 2
Fore
SplineSet
75 -100 m 1
 75 600 l 1
 250 600 l 1
 250 510 l 1
 175 510 l 1
 175 -10 l 1
 250 -10 l 1
 250 -100 l 1
 75 -100 l 1
EndSplineSet
Validated: 1
EndChar

StartChar: bracketright
Encoding: 93 93 221
Width: 296
GlyphClass: 1
Flags: W
LayerCount: 2
Fore
SplineSet
46 -100 m 1
 45 -10 l 1
 120 -10 l 1
 121 510 l 1
 45 510 l 1
 45 600 l 1
 220 600 l 1
 220 -100 l 1
 46 -100 l 1
EndSplineSet
Validated: 1
EndChar

StartChar: braceleft
Encoding: 123 123 222
Width: 321
GlyphClass: 1
Flags: W
LayerCount: 2
Fore
SplineSet
25 295 m 1
 50 295 l 2
 80 295 100 315 100 345 c 2
 100 450 l 2
 100 540 160 600 250 600 c 2
 275 600 l 1
 275 510 l 1
 250 510 l 2
 220 510 200 492 200 464 c 2
 200 365 l 2
 200 315 178 274 142 250 c 1
 178 226 200 185 200 135 c 2
 200 36 l 2
 200 8 220 -10 250 -10 c 2
 275 -10 l 1
 275 -100 l 1
 250 -100 l 2
 160 -100 100 -40 100 50 c 2
 100 155 l 2
 100 185 80 205 50 205 c 2
 25 205 l 1
 25 295 l 1
EndSplineSet
Validated: 1
EndChar

StartChar: braceright
Encoding: 125 125 223
Width: 320
GlyphClass: 1
Flags: W
LayerCount: 2
Fore
SplineSet
45 -100 m 1
 45 -10 l 1
 70 -10 l 2
 100 -10 120 8 120 36 c 2
 120 135 l 2
 120 185 142 226 178 250 c 1
 142 274 120 315 120 365 c 2
 120 464 l 2
 120 492 100 510 70 510 c 2
 45 510 l 1
 45 600 l 1
 70 600 l 2
 160 600 220 540 220 450 c 2
 220 345 l 2
 220 315 240 295 270 295 c 2
 295 295 l 1
 295 205 l 1
 270 205 l 2
 240 205 220 185 220 155 c 2
 220 50 l 2
 220 -40 160 -100 70 -100 c 2
 45 -100 l 1
EndSplineSet
Validated: 1
EndChar

StartChar: at
Encoding: 64 64 224
Width: 820
GlyphClass: 1
Flags: W
LayerCount: 2
Fore
SplineSet
766 300 m 0
 766 173 673 90 530 90 c 2
 408 90 l 2
 314 90 250 154 250 250 c 0
 250 346 314 410 410 410 c 0
 506 410 570 346 570 250 c 0
 570 221 559 188 532 173 c 1
 533 171 l 1
 609 171 659 222 659 300 c 0
 659 431 557 520 408 520 c 0
 256 520 155 412 155 250 c 0
 155 88 273 -20 451 -20 c 0
 561 -20 616 17 616 17 c 1
 659 -54 l 1
 659 -54 588 -110 452 -110 c 0
 211 -110 50 34 50 250 c 0
 50 467 192 610 407 610 c 0
 623 610 766 486 766 300 c 0
410 185 m 0
 447 185 465 216 465 250 c 0
 465 284 447 315 410 315 c 0
 373 315 355 284 355 250 c 0
 355 217 373 185 410 185 c 0
EndSplineSet
Validated: 1
EndChar

StartChar: ampersand
Encoding: 38 38 225
Width: 560
GlyphClass: 1
Flags: W
LayerCount: 2
Fore
SplineSet
50 140 m 0
 50 192 81 235 128 253 c 1
 91 271 65 313 65 360 c 0
 65 456 137 510 265 510 c 0
 394 510 465 455 465 355 c 1
 360 355 l 1
 360 394 327 415 265 415 c 0
 203 415 170 394 170 355 c 0
 170 316 201 295 260 295 c 2
 535 295 l 1
 535 205 l 1
 477 205 l 1
 479 191 480 177 480 165 c 0
 480 59 395 -10 265 -10 c 0
 128 -10 50 44 50 140 c 0
155 145 m 0
 155 106 194 85 265 85 c 0
 331 85 375 117 375 165 c 2
 375 205 l 1
 260 205 l 2
 191 205 155 184 155 145 c 0
EndSplineSet
Validated: 1
EndChar

StartChar: asterisk
Encoding: 42 42 226
Width: 395
GlyphClass: 1
Flags: W
LayerCount: 2
Fore
SplineSet
50 306 m 1
 106 338 l 2
 119 345 152 349 153 349 c 1
 153 351 l 1
 153 351 119 355 106 363 c 2
 50 395 l 1
 85 456 l 1
 141 424 l 2
 151 418 167 399 174 389 c 1
 176 390 l 1
 176 390 162 421 162 436 c 2
 162 500 l 1
 232 500 l 1
 232 436 l 2
 232 421 219 390 219 390 c 1
 221 389 l 1
 221 389 226 395 232 403 c 0
 239 411 247 420 254 424 c 2
 310 456 l 1
 345 395 l 1
 289 363 l 2
 276 355 242 351 242 351 c 1
 242 349 l 1
 242 349 276 345 289 338 c 2
 345 306 l 1
 310 245 l 1
 254 277 l 2
 247 281 239 290 232 298 c 0
 226 306 221 312 221 312 c 1
 219 311 l 1
 219 311 232 280 232 265 c 2
 232 200 l 1
 162 200 l 1
 162 265 l 2
 162 280 176 311 176 311 c 1
 174 312 l 1
 166 301 152 284 141 277 c 2
 85 245 l 1
 50 306 l 1
EndSplineSet
Validated: 1
EndChar

StartChar: paragraph
Encoding: 182 182 227
Width: 630
GlyphClass: 1
Flags: W
LayerCount: 2
Fore
SplineSet
195 205 m 2
 106 205 45 264 45 350 c 0
 45 440 105 500 195 500 c 2
 555 500 l 1
 555 0 l 1
 455 0 l 1
 455 410 l 1
 355 410 l 1
 355 0 l 1
 255 0 l 1
 255 205 l 1
 195 205 l 2
EndSplineSet
Validated: 1
EndChar

StartChar: Euro
Encoding: 8364 8364 228
Width: 579
GlyphClass: 1
Flags: W
LayerCount: 2
Fore
SplineSet
25 205 m 1
 25 295 l 1
 78 295 l 1
 98 422 200 510 335 510 c 0
 420 510 492 475 539 417 c 1
 460 352 l 1
 432 391 388 415 335 415 c 0
 260 415 202 366 185 295 c 1
 425 295 l 1
 425 205 l 1
 185 205 l 1
 202 134 260 85 335 85 c 0
 388 85 432 109 460 148 c 1
 539 83 l 1
 492 25 420 -10 335 -10 c 0
 200 -10 98 78 78 205 c 1
 25 205 l 1
EndSplineSet
Validated: 1
EndChar

StartChar: percent
Encoding: 37 37 229
Width: 770
GlyphClass: 1
Flags: HW
LayerCount: 2
Fore
SplineSet
50 410 m 0
 50 497 113 560 200 560 c 0
 288 560 350 498 350 410 c 0
 350 320 290 260 200 260 c 0
 111 260 50 321 50 410 c 0
140 410 m 0
 140 370 164 345 200 345 c 0
 237 345 260 371 260 410 c 0
 260 450 236 475 200 475 c 0
 164 475 140 449 140 410 c 0
420 90 m 0
 420 177 483 240 570 240 c 0
 658 240 720 178 720 90 c 0
 720 0 660 -60 570 -60 c 0
 481 -60 420 1 420 90 c 0
510 90 m 0
 510 50 534 25 570 25 c 0
 607 25 630 51 630 90 c 0
 630 130 606 155 570 155 c 0
 534 155 510 129 510 90 c 0
154 81 m 1
 554 481 l 1
 616 419 l 1
 216 19 l 1
 154 81 l 1
EndSplineSet
Validated: 1
EndChar

StartChar: numbersign
Encoding: 35 35 230
Width: 650
GlyphClass: 1
Flags: W
LayerCount: 2
Fore
SplineSet
136 110 m 1
 55 110 l 1
 55 190 l 1
 152 190 l 1
 176 310 l 1
 95 310 l 1
 95 390 l 1
 192 390 l 1
 214 500 l 1
 306 500 l 1
 284 390 l 1
 402 390 l 1
 424 500 l 1
 516 500 l 1
 494 390 l 1
 575 390 l 1
 575 310 l 1
 478 310 l 1
 454 190 l 1
 535 190 l 1
 535 110 l 1
 438 110 l 1
 416 0 l 1
 324 0 l 1
 346 110 l 1
 228 110 l 1
 206 0 l 1
 114 0 l 1
 136 110 l 1
244 190 m 1
 362 190 l 1
 386 310 l 1
 268 310 l 1
 244 190 l 1
EndSplineSet
Validated: 1
EndChar

StartChar: minus
Encoding: 8722 8722 231
Width: 550
GlyphClass: 1
Flags: W
LayerCount: 2
Fore
SplineSet
75 205 m 1
 75 295 l 1
 475 295 l 1
 475 205 l 1
 75 205 l 1
EndSplineSet
Validated: 1
EndChar

StartChar: plus
Encoding: 43 43 232
Width: 550
GlyphClass: 1
Flags: W
LayerCount: 2
Fore
SplineSet
325 295 m 1
 475 295 l 1
 475 205 l 1
 325 205 l 1
 325 50 l 1
 225 50 l 1
 225 205 l 1
 75 205 l 1
 75 295 l 1
 225 295 l 1
 225 450 l 1
 325 450 l 1
 325 295 l 1
EndSplineSet
Validated: 1
EndChar

StartChar: multiply
Encoding: 215 215 233
Width: 530
GlyphClass: 1
Flags: W
LayerCount: 2
Fore
SplineSet
65 383 m 1
 132 450 l 1
 265 317 l 1
 398 450 l 1
 465 383 l 1
 332 250 l 1
 465 117 l 1
 398 50 l 1
 265 183 l 1
 132 50 l 1
 65 118 l 1
 198 250 l 1
 65 383 l 1
EndSplineSet
Validated: 1
EndChar

StartChar: divide
Encoding: 247 247 234
Width: 550
GlyphClass: 1
Flags: W
LayerCount: 2
Fore
SplineSet
75 205 m 1
 75 295 l 1
 475 295 l 1
 475 205 l 1
 75 205 l 1
215 100 m 0
 215 134 241 160 275 160 c 0
 309 160 335 134 335 100 c 0
 335 66 309 40 275 40 c 0
 241 40 215 66 215 100 c 0
215 400 m 0
 215 434 241 460 275 460 c 0
 309 460 335 434 335 400 c 0
 335 366 309 340 275 340 c 0
 241 340 215 366 215 400 c 0
EndSplineSet
Validated: 1
EndChar

StartChar: equal
Encoding: 61 61 235
Width: 550
GlyphClass: 1
Flags: W
LayerCount: 2
Fore
SplineSet
75 105 m 1
 75 195 l 1
 475 195 l 1
 475 105 l 1
 75 105 l 1
75 395 m 1
 475 395 l 1
 475 305 l 1
 75 305 l 1
 75 395 l 1
EndSplineSet
Validated: 1
EndChar

StartChar: degree
Encoding: 176 176 236
Width: 436
GlyphClass: 1
Flags: W
LayerCount: 2
Fore
SplineSet
50 350 m 0
 50 445 118 510 218 510 c 0
 319 510 386 446 386 350 c 0
 386 255 318 190 218 190 c 0
 118 190 50 255 50 350 c 0
150 350 m 0
 150 308 178 280 218 280 c 0
 258 280 286 308 286 350 c 0
 286 392 259 420 218 420 c 0
 178 420 150 392 150 350 c 0
EndSplineSet
Validated: 1
EndChar

StartChar: bar
Encoding: 124 124 237
Width: 250
GlyphClass: 1
Flags: W
LayerCount: 2
Fore
SplineSet
75 600 m 1
 175 601 l 1
 175 -100 l 1
 75 -100 l 1
 75 600 l 1
EndSplineSet
Validated: 1
EndChar

StartChar: slash
Encoding: 47 47 238
Width: 461
GlyphClass: 1
Flags: W
LayerCount: 2
Fore
SplineSet
121 -70 m 1
 40 -30 l 1
 340 570 l 1
 421 530 l 1
 121 -70 l 1
EndSplineSet
Validated: 1
EndChar

StartChar: backslash
Encoding: 92 92 239
Width: 461
GlyphClass: 1
Flags: W
LayerCount: 2
Fore
SplineSet
121 570 m 1
 421 -30 l 1
 340 -70 l 1
 40 530 l 1
 121 570 l 1
EndSplineSet
Validated: 1
EndChar

StartChar: hyphen
Encoding: 45 45 240
Width: 500
GlyphClass: 1
Flags: W
LayerCount: 2
Fore
SplineSet
75 205 m 1
 75 295 l 1
 425 295 l 1
 425 205 l 1
 75 205 l 1
EndSplineSet
Validated: 1
EndChar

StartChar: underscore
Encoding: 95 95 241
Width: 500
GlyphClass: 1
Flags: W
LayerCount: 2
Fore
SplineSet
75 -95 m 1
 75 -5 l 1
 425 -5 l 1
 425 -95 l 1
 75 -95 l 1
EndSplineSet
Validated: 1
EndChar

StartChar: endash
Encoding: 8211 8211 242
Width: 800
GlyphClass: 1
Flags: W
LayerCount: 2
Fore
SplineSet
75 205 m 1
 75 295 l 1
 725 295 l 1
 725 205 l 1
 75 205 l 1
EndSplineSet
Validated: 1
EndChar

StartChar: emdash
Encoding: 8212 8212 243
Width: 1000
GlyphClass: 1
Flags: W
LayerCount: 2
Fore
SplineSet
75 205 m 1
 75 295 l 1
 925 295 l 1
 925 205 l 1
 75 205 l 1
EndSplineSet
Validated: 1
EndChar

StartChar: uni0411
Encoding: 1041 1041 244
Width: 615
GlyphClass: 1
Flags: W
LayerCount: 2
Fore
SplineSet
425 0 m 2
 75 0 l 1
 75 500 l 1
 540 500 l 1
 540 410 l 1
 175 410 l 1
 175 300 l 1
 425 300 l 2
 515 300 575 245 575 163 c 0
 575 65 515 0 425 0 c 2
425 210 m 2
 175 210 l 1
 175 90 l 1
 425 90 l 2
 455 90 475 111 475 142 c 2
 475 158 l 2
 475 189 455 210 425 210 c 2
EndSplineSet
Validated: 1
EndChar

StartChar: uni0418
Encoding: 1048 1048 245
Width: 650
GlyphClass: 1
Flags: W
LayerCount: 2
Fore
SplineSet
75 0 m 1
 75 500 l 1
 175 500 l 1
 175 155 l 1
 485 500 l 1
 575 500 l 1
 575 0 l 1
 475 0 l 1
 475 345 l 1
 165 0 l 1
 75 0 l 1
EndSplineSet
Validated: 1
EndChar

StartChar: uni0428
Encoding: 1064 1064 246
Width: 650
GlyphClass: 1
Flags: W
LayerCount: 2
Fore
SplineSet
75 0 m 1
 75 500 l 1
 175 500 l 1
 175 90 l 1
 275 90 l 1
 275 500 l 1
 375 500 l 1
 375 90 l 1
 475 90 l 1
 475 500 l 1
 575 500 l 1
 575 0 l 1
 75 0 l 1
EndSplineSet
Validated: 1
EndChar

StartChar: B.ss01
Encoding: 65537 -1 247
Width: 650
GlyphClass: 1
Flags: W
LayerCount: 2
Fore
SplineSet
75 500 m 1
 415 500 l 2
 505 500 565 440 565 350 c 0
 565 311 549 278 520 256 c 1
 561 235 585 198 585 150 c 0
 585 60 525 0 435 0 c 2
 75 0 l 1
 75 500 l 1
175 205 m 1
 175 90 l 1
 435 90 l 2
 465 90 485 110 485 140 c 2
 485 155 l 2
 485 185 465 205 435 205 c 2
 175 205 l 1
175 295 m 1
 415 295 l 2
 445 295 465 315 465 345 c 2
 465 360 l 2
 465 390 445 410 415 410 c 2
 175 410 l 1
 175 295 l 1
EndSplineSet
Validated: 1
EndChar

StartChar: C.ss01
Encoding: 65538 -1 248
Width: 650
GlyphClass: 1
Flags: W
LayerCount: 2
Fore
SplineSet
225 0 m 2
 135 0 75 60 75 150 c 2
 75 350 l 2
 75 440 135 500 225 500 c 2
 425 500 l 2
 515 500 575 440 575 350 c 2
 575 340 l 1
 475 340 l 1
 475 360 l 2
 475 390 455 410 425 410 c 2
 225 410 l 2
 195 410 175 390 175 360 c 2
 175 140 l 2
 175 110 195 90 225 90 c 2
 425 90 l 2
 455 90 475 110 475 140 c 2
 475 160 l 1
 575 160 l 1
 575 150 l 2
 575 60 515 0 425 0 c 2
 225 0 l 2
EndSplineSet
Validated: 1
EndChar

StartChar: D.ss01
Encoding: 65539 -1 249
Width: 650
GlyphClass: 1
Flags: W
LayerCount: 2
Fore
SplineSet
175 90 m 1
 425 90 l 2
 455 90 475 110 475 140 c 2
 475 360 l 2
 475 390 455 410 425 410 c 2
 175 410 l 1
 175 90 l 1
575 350 m 2
 575 150 l 2
 575 60 515 0 425 0 c 2
 75 0 l 1
 75 500 l 1
 425 500 l 2
 515 500 575 440 575 350 c 2
EndSplineSet
Validated: 1
EndChar

StartChar: E.ss01
Encoding: 65540 -1 250
Width: 650
GlyphClass: 1
Flags: W
LayerCount: 2
Fore
SplineSet
75 500 m 1
 575 500 l 1
 575 410 l 1
 175 410 l 1
 175 295 l 1
 375 295 l 1
 375 205 l 1
 175 205 l 1
 175 90 l 1
 575 90 l 1
 575 0 l 1
 75 0 l 1
 75 500 l 1
EndSplineSet
Validated: 1
EndChar

StartChar: F.ss01
Encoding: 65541 -1 251
Width: 625
GlyphClass: 1
Flags: W
LayerCount: 2
Fore
SplineSet
75 500 m 1
 575 500 l 1
 575 410 l 1
 175 410 l 1
 175 295 l 1
 375 295 l 1
 375 205 l 1
 175 205 l 1
 175 0 l 1
 75 0 l 1
 75 500 l 1
EndSplineSet
Validated: 1
EndChar

StartChar: G.ss01
Encoding: 65542 -1 252
Width: 650
GlyphClass: 1
Flags: W
LayerCount: 2
Fore
SplineSet
50 350 m 2
 50 440 110 500 200 500 c 2
 400 500 l 2
 490 500 550 440 550 350 c 2
 550 340 l 1
 450 340 l 1
 450 360 l 2
 450 390 430 410 400 410 c 2
 200 410 l 2
 170 410 150 390 150 360 c 2
 150 140 l 2
 150 110 170 90 200 90 c 2
 400 90 l 2
 430 90 450 110 450 140 c 2
 450 200 l 1
 350 200 l 1
 350 290 l 1
 550 290 l 1
 550 150 l 2
 550 60 490 0 400 0 c 2
 200 0 l 2
 110 0 50 60 50 150 c 2
 50 350 l 2
EndSplineSet
Validated: 1
EndChar

StartChar: I.ss01
Encoding: 65543 -1 253
Width: 450
GlyphClass: 1
Flags: W
LayerCount: 2
Fore
SplineSet
75 0 m 1
 75 90 l 1
 175 90 l 1
 175 410 l 1
 75 410 l 1
 75 500 l 1
 375 500 l 1
 375 410 l 1
 275 410 l 1
 275 90 l 1
 375 90 l 1
 375 0 l 1
 75 0 l 1
EndSplineSet
Validated: 1
EndChar

StartChar: K.ss01
Encoding: 65544 -1 254
Width: 650
GlyphClass: 1
Flags: W
LayerCount: 2
Fore
SplineSet
75 500 m 1
 175 500 l 1
 175 339 l 1
 420 500 l 1
 590 500 l 1
 326 326 l 1
 586 0 l 1
 464 0 l 1
 245 273 l 1
 175 227 l 1
 175 0 l 1
 75 0 l 1
 75 500 l 1
EndSplineSet
Validated: 1
EndChar

StartChar: L.ss01
Encoding: 65545 -1 255
Width: 650
GlyphClass: 1
Flags: W
LayerCount: 2
Fore
SplineSet
75 500 m 1
 175 500 l 1
 175 90 l 1
 575 90 l 1
 575 0 l 1
 75 0 l 1
 75 500 l 1
EndSplineSet
Validated: 1
EndChar

StartChar: O.ss01
Encoding: 65546 -1 256
Width: 650
GlyphClass: 1
Flags: W
LayerCount: 2
Fore
SplineSet
425 0 m 2
 225 0 l 2
 135 0 75 60 75 150 c 2
 75 350 l 2
 75 440 135 500 225 500 c 2
 425 500 l 2
 515 500 575 440 575 350 c 2
 575 150 l 2
 575 60 515 0 425 0 c 2
225 90 m 2
 425 90 l 2
 455 90 475 110 475 140 c 2
 475 360 l 2
 475 390 455 410 425 410 c 2
 225 410 l 2
 195 410 175 390 175 360 c 2
 175 140 l 2
 175 110 195 90 225 90 c 2
EndSplineSet
Validated: 1
EndChar

StartChar: Oslash.ss01
Encoding: 65547 -1 257
Width: 650
GlyphClass: 1
Flags: W
LayerCount: 2
Fore
SplineSet
124 -15 m 1
 60 49 l 1
 90 79 l 1
 80 99 75 123 75 150 c 2
 75 350 l 2
 75 440 135 500 225 500 c 2
 425 500 l 2
 452 500 476 495 496 485 c 1
 526 515 l 1
 590 451 l 1
 560 421 l 1
 570 401 575 377 575 350 c 2
 575 150 l 2
 575 60 515 0 425 0 c 2
 225 0 l 2
 198 0 174 5 154 15 c 1
 124 -15 l 1
222 90 m 1
 223 90 224 90 225 90 c 2
 425 90 l 2
 455 90 475 110 475 140 c 2
 475 341 l 1
 467 330 458 319 449 310 c 2
 260 121 l 2
 250 111 235 99 222 90 c 1
175 160 m 1
 183 170 192 181 201 190 c 2
 390 379 l 2
 400 389 415 401 428 410 c 1
 427 410 426 410 425 410 c 2
 225 410 l 2
 195 410 175 390 175 360 c 2
 175 160 l 1
EndSplineSet
Validated: 1
EndChar

StartChar: Q.ss01
Encoding: 65548 -1 258
Width: 620
GlyphClass: 1
Flags: W
LayerCount: 2
Fore
SplineSet
225 0 m 2
 135 0 75 60 75 150 c 2
 75 350 l 2
 75 440 135 500 225 500 c 2
 425 500 l 2
 515 500 575 440 575 350 c 2
 575 150 l 2
 575 122 569 97 558 76 c 1
 595 39 l 1
 531 -25 l 1
 493 13 l 1
 473 5 450 0 425 0 c 2
 225 0 l 2
175 360 m 2
 175 140 l 2
 175 110 195 90 225 90 c 2
 423 90 l 1
 410 99 395 111 385 121 c 2
 356 150 l 1
 415 219 l 1
 444 190 l 2
 454 180 466 165 475 153 c 1
 475 360 l 2
 475 390 455 410 425 410 c 2
 225 410 l 2
 195 410 175 390 175 360 c 2
EndSplineSet
Validated: 1
EndChar

StartChar: S.ss01
Encoding: 65549 -1 259
Width: 650
GlyphClass: 1
Flags: W
LayerCount: 2
Fore
SplineSet
575 350 m 1
 475 350 l 1
 475 360 l 2
 475 390 455 410 425 410 c 2
 225 410 l 2
 195 410 175 390 175 360 c 2
 175 345 l 2
 175 315 195 295 225 295 c 2
 439 295 l 2
 527 295 585 237 585 146 c 0
 585 58 527 0 439 0 c 2
 215 0 l 2
 125 0 65 60 65 150 c 1
 165 150 l 1
 165 140 l 2
 165 110 185 90 215 90 c 2
 435 90 l 2
 465 90 485 110 485 140 c 2
 485 155 l 2
 485 185 465 205 435 205 c 2
 221 205 l 2
 133 205 75 263 75 354 c 0
 75 442 133 500 221 500 c 2
 425 500 l 2
 515 500 575 440 575 350 c 1
EndSplineSet
Validated: 1
EndChar

StartChar: U.ss01
Encoding: 65550 -1 260
Width: 650
GlyphClass: 1
Flags: W
LayerCount: 2
Fore
SplineSet
75 150 m 2
 75 500 l 1
 175 500 l 1
 175 141 l 2
 175 111 195 90 225 90 c 2
 425 90 l 2
 455 90 475 111 475 141 c 2
 475 500 l 1
 575 500 l 1
 575 150 l 2
 575 60 515 0 425 0 c 2
 225 0 l 2
 135 0 75 60 75 150 c 2
EndSplineSet
Validated: 1
EndChar

StartChar: zero.ss01
Encoding: 65551 -1 261
Width: 650
GlyphClass: 1
Flags: W
LayerCount: 2
Fore
SplineSet
225 0 m 2
 135 0 75 60 75 150 c 2
 75 350 l 2
 75 440 135 500 225 500 c 2
 425 500 l 2
 515 500 575 440 575 350 c 2
 575 150 l 2
 575 60 515 0 425 0 c 2
 225 0 l 2
473 124 m 1
 175 273 l 1
 175 140 l 2
 175 110 195 90 225 90 c 2
 425 90 l 2
 449 90 467 103 473 124 c 1
177 376 m 1
 475 228 l 1
 475 360 l 2
 475 390 455 410 425 410 c 2
 225 410 l 2
 201 410 183 397 177 376 c 1
EndSplineSet
Validated: 1
EndChar

StartChar: one.ss01
Encoding: 65552 -1 262
Width: 650
GlyphClass: 1
Flags: W
LayerCount: 2
Fore
SplineSet
75 90 m 1
 275 90 l 1
 275 388 l 1
 144 313 l 1
 99 393 l 1
 285 500 l 1
 375 500 l 1
 375 90 l 1
 575 90 l 1
 575 0 l 1
 75 0 l 1
 75 90 l 1
EndSplineSet
Validated: 1
EndChar

StartChar: two.ss01
Encoding: 65553 -1 263
Width: 650
GlyphClass: 1
Flags: W
LayerCount: 2
Fore
SplineSet
185 360 m 2
 185 350 l 1
 85 350 l 1
 85 440 144 500 234 500 c 2
 415 500 l 2
 505 500 565 440 565 344 c 0
 565 254 505 195 415 195 c 2
 225 195 l 2
 195 195 175 175 175 145 c 2
 175 90 l 1
 575 90 l 1
 575 0 l 1
 75 0 l 1
 75 135 l 2
 75 225 135 285 225 285 c 2
 414 285 l 2
 444 285 465 305 465 335 c 2
 465 360 l 2
 465 390 445 410 415 410 c 2
 235 410 l 2
 205 410 185 390 185 360 c 2
EndSplineSet
Validated: 1
EndChar

StartChar: three.ss01
Encoding: 65554 -1 264
Width: 650
GlyphClass: 1
Flags: W
LayerCount: 2
Fore
SplineSet
435 205 m 2
 275 205 l 1
 275 295 l 1
 424 295 l 2
 454 295 475 315 475 345 c 2
 475 360 l 2
 475 390 455 410 425 410 c 2
 225 410 l 2
 195 410 175 390 175 360 c 2
 175 350 l 1
 75 350 l 1
 75 440 135 500 225 500 c 2
 429 500 l 2
 517 500 575 442 575 351 c 0
 575 313 564 280 544 255 c 1
 570 229 585 192 585 146 c 0
 585 58 527 0 439 0 c 2
 215 0 l 2
 125 0 65 60 65 150 c 1
 165 150 l 1
 165 140 l 2
 165 110 185 90 215 90 c 2
 435 90 l 2
 465 90 485 110 485 140 c 2
 485 155 l 2
 485 185 465 205 435 205 c 2
EndSplineSet
Validated: 1
EndChar

StartChar: four.ss01
Encoding: 65555 -1 265
Width: 600
GlyphClass: 1
Flags: W
LayerCount: 2
Fore
SplineSet
50 195 m 1
 250 500 l 1
 450 500 l 1
 450 195 l 1
 550 195 l 1
 550 105 l 1
 450 105 l 1
 450 0 l 1
 350 0 l 1
 350 105 l 1
 50 105 l 1
 50 195 l 1
307 410 m 1
 166 195 l 1
 350 195 l 1
 350 410 l 1
 307 410 l 1
EndSplineSet
Validated: 1
EndChar

StartChar: five.ss01
Encoding: 65556 -1 266
Width: 650
GlyphClass: 1
Flags: W
LayerCount: 2
Fore
SplineSet
75 150 m 1
 175 150 l 1
 175 140 l 2
 175 110 195 90 225 90 c 2
 435 90 l 2
 465 90 485 110 485 140 c 2
 485 165 l 2
 485 195 464 215 434 215 c 2
 85 215 l 1
 85 500 l 1
 575 500 l 1
 575 410 l 1
 185 410 l 1
 185 305 l 1
 435 305 l 2
 525 305 585 246 585 150 c 0
 585 60 525 0 435 0 c 2
 224 0 l 2
 134 0 75 60 75 150 c 1
EndSplineSet
Validated: 1
EndChar

StartChar: six.ss01
Encoding: 65557 -1 267
Width: 650
GlyphClass: 1
Flags: W
LayerCount: 2
Fore
SplineSet
75 350 m 2
 75 440 135 500 225 500 c 2
 425 500 l 2
 515 500 575 440 575 350 c 1
 475 350 l 1
 475 360 l 2
 475 390 455 410 425 410 c 2
 225 410 l 2
 195 410 175 390 175 360 c 2
 175 295 l 1
 439 295 l 2
 527 295 585 237 585 146 c 0
 585 58 527 0 439 0 c 2
 225 0 l 2
 135 0 75 60 75 150 c 2
 75 350 l 2
434 205 m 2
 175 205 l 1
 175 140 l 2
 175 110 195 90 225 90 c 2
 435 90 l 2
 465 90 485 110 485 140 c 2
 485 155 l 2
 485 185 464 205 434 205 c 2
EndSplineSet
Validated: 1
EndChar

StartChar: seven.ss01
Encoding: 65558 -1 268
Width: 600
GlyphClass: 1
Flags: W
LayerCount: 2
Fore
SplineSet
50 500 m 1
 550 500 l 1
 550 420 l 1
 250 0 l 1
 130 0 l 1
 425 410 l 1
 50 410 l 1
 50 500 l 1
EndSplineSet
Validated: 1
EndChar

StartChar: eight.ss01
Encoding: 65559 -1 269
Width: 650
GlyphClass: 1
Flags: W
LayerCount: 2
Fore
SplineSet
211 0 m 2
 123 0 65 58 65 149 c 0
 65 193 80 230 106 256 c 1
 86 281 75 314 75 354 c 0
 75 442 133 500 221 500 c 2
 429 500 l 2
 517 500 575 442 575 351 c 0
 575 313 564 280 544 255 c 1
 570 229 585 192 585 146 c 0
 585 58 527 0 439 0 c 2
 211 0 l 2
164 140 m 2
 164 110 184 90 214 90 c 2
 435 90 l 2
 465 90 485 110 485 140 c 2
 485 155 l 2
 485 185 465 205 435 205 c 2
 215 205 l 2
 185 205 164 185 164 155 c 2
 164 140 l 2
225 410 m 2
 195 410 175 390 175 360 c 2
 176 345 l 2
 176 315 196 295 226 295 c 2
 424 295 l 2
 454 295 475 315 475 345 c 2
 475 360 l 2
 475 390 455 410 425 410 c 2
 225 410 l 2
EndSplineSet
Validated: 1
EndChar

StartChar: nine.ss01
Encoding: 65560 -1 270
Width: 650
GlyphClass: 1
Flags: W
LayerCount: 2
Fore
SplineSet
215 0 m 2
 125 0 65 60 65 150 c 1
 165 150 l 1
 165 140 l 2
 165 110 185 90 215 90 c 2
 425 90 l 2
 455 90 475 110 475 140 c 2
 475 205 l 1
 221 205 l 2
 133 205 75 263 75 354 c 0
 75 442 133 500 221 500 c 2
 425 500 l 2
 515 500 575 440 575 350 c 2
 575 150 l 2
 575 60 515 0 425 0 c 2
 215 0 l 2
175 360 m 2
 175 345 l 2
 175 315 195 295 225 295 c 2
 475 295 l 1
 475 360 l 2
 475 390 455 410 425 410 c 2
 225 410 l 2
 195 410 175 390 175 360 c 2
EndSplineSet
Validated: 1
EndChar

StartChar: E.ss02
Encoding: 65561 -1 271
Width: 650
GlyphClass: 1
Flags: W
LayerCount: 2
Fore
SplineSet
75 500 m 1
 575 500 l 1
 575 410 l 1
 175 410 l 1
 175 295 l 1
 575 295 l 1
 575 205 l 1
 175 205 l 1
 175 90 l 1
 575 90 l 1
 575 0 l 1
 75 0 l 1
 75 500 l 1
EndSplineSet
Validated: 1
EndChar

StartChar: F.ss02
Encoding: 65562 -1 272
Width: 650
GlyphClass: 1
Flags: W
LayerCount: 2
Fore
SplineSet
75 500 m 1
 575 500 l 1
 575 410 l 1
 175 410 l 1
 175 295 l 1
 575 295 l 1
 575 205 l 1
 175 205 l 1
 175 0 l 1
 75 0 l 1
 75 500 l 1
EndSplineSet
Validated: 1
EndChar

StartChar: I.ss02
Encoding: 65563 -1 273
Width: 650
GlyphClass: 1
Flags: W
LayerCount: 2
Fore
SplineSet
75 0 m 1
 75 90 l 1
 275 90 l 1
 275 410 l 1
 75 410 l 1
 75 500 l 1
 575 500 l 1
 575 410 l 1
 375 410 l 1
 375 90 l 1
 575 90 l 1
 575 0 l 1
 75 0 l 1
EndSplineSet
Validated: 1
EndChar

StartChar: K.ss02
Encoding: 65564 -1 274
Width: 650
GlyphClass: 1
Flags: W
LayerCount: 2
Fore
SplineSet
75 500 m 1
 175 500 l 1
 175 295 l 1
 299 295 l 1
 464 500 l 1
 586 500 l 1
 387 251 l 1
 597 0 l 1
 473 0 l 1
 300 205 l 1
 175 205 l 1
 175 0 l 1
 75 0 l 1
 75 500 l 1
EndSplineSet
Validated: 1
EndChar

StartChar: RK.ss00
Encoding: 65565 -1 275
Width: 1571
GlyphClass: 1
Flags: W
LayerCount: 2
Fore
SplineSet
75 500 m 1
 435 500 l 2
 525 500 585 440 585 350 c 0
 585 330 582 312 576 295 c 1
 1025 295 l 1
 1025 500 l 1
 1125 500 l 1
 1125 259 l 1
 1394 500 l 1
 1536 500 l 1
 1303 291 l 1
 1536 0 l 1
 1414 0 l 1
 1232 227 l 1
 1125 131 l 1
 1125 0 l 1
 1025 0 l 1
 1025 205 l 1
 455 205 l 1
 462 197 468 189 472 182 c 2
 585 0 l 1
 472 0 l 1
 345 205 l 1
 175 205 l 1
 175 0 l 1
 75 0 l 1
 75 500 l 1
175 410 m 1
 175 295 l 1
 435 295 l 2
 465 295 485 315 485 345 c 2
 485 360 l 2
 485 390 465 410 435 410 c 2
 175 410 l 1
EndSplineSet
Validated: 1
Ligature2: "'liga' Standard Ligatures in Latin lookup 0 subtable" r hyphen k
Ligature2: "'liga' Standard Ligatures in Latin lookup 0 subtable" r hyphen K
Ligature2: "'liga' Standard Ligatures in Latin lookup 0 subtable" R hyphen k
Ligature2: "'liga' Standard Ligatures in Latin lookup 0 subtable" R hyphen K
EndChar

StartChar: RK.ss01
Encoding: 65566 -1 276
Width: 1582
GlyphClass: 1
Flags: W
LayerCount: 2
Fore
SplineSet
175 0 m 1
 75 0 l 1
 75 500 l 1
 435 500 l 2
 525 500 585 440 585 350 c 0
 585 330 582 312 576 295 c 1
 1025 295 l 1
 1025 500 l 1
 1125 500 l 1
 1125 295 l 1
 1249 295 l 1
 1414 500 l 1
 1537 500 l 1
 1337 251 l 1
 1547 0 l 1
 1423 0 l 1
 1250 205 l 1
 1125 205 l 1
 1125 0 l 1
 1025 0 l 1
 1025 205 l 1
 455 205 l 1
 462 197 468 189 472 182 c 2
 585 0 l 1
 472 0 l 1
 345 205 l 1
 175 205 l 1
 175 0 l 1
175 410 m 1
 175 295 l 1
 435 295 l 2
 465 295 485 315 485 345 c 2
 485 360 l 2
 485 390 465 410 435 410 c 2
 175 410 l 1
EndSplineSet
Validated: 1
EndChar

StartChar: RK.ss02
Encoding: 65567 -1 277
Width: 2100
GlyphClass: 1
Flags: W
LayerCount: 2
Fore
SplineSet
75 500 m 1
 435 500 l 2
 525 500 585 440 585 350 c 0
 585 330 582 312 576 295 c 1
 1025 295 l 1
 1025 500 l 1
 1125 500 l 1
 1125 339 l 1
 1370 500 l 1
 1540 500 l 1
 1276 326 l 1
 1536 0 l 1
 1414 0 l 1
 1195 273 l 1
 1125 227 l 1
 1125 0 l 1
 1025 0 l 1
 1025 205 l 1
 455 205 l 1
 462 197 468 189 472 182 c 2
 585 0 l 1
 472 0 l 1
 345 205 l 1
 175 205 l 1
 175 0 l 1
 75 0 l 1
 75 500 l 1
175 410 m 1
 175 295 l 1
 435 295 l 2
 465 295 485 315 485 345 c 2
 485 360 l 2
 485 390 465 410 435 410 c 2
 175 410 l 1
EndSplineSet
Validated: 1
EndChar

StartChar: OK.ss00
Encoding: 65568 -1 278
Width: 1391
GlyphClass: 1
Flags: W
LayerCount: 2
Fore
SplineSet
310 -10 m 0
 160 -10 50 100 50 250 c 0
 50 400 160 510 310 510 c 0
 445 510 547 421 567 295 c 1
 845 295 l 1
 845 500 l 1
 945 500 l 1
 945 259 l 1
 1214 500 l 1
 1356 500 l 1
 1123 291 l 1
 1356 0 l 1
 1234 0 l 1
 1052 227 l 1
 945 131 l 1
 945 0 l 1
 845 0 l 1
 845 205 l 1
 567 205 l 1
 547 79 445 -10 310 -10 c 0
310 415 m 0
 220 415 155 345 155 250 c 0
 155 155 220 85 310 85 c 0
 400 85 465 155 465 250 c 0
 465 345 400 415 310 415 c 0
EndSplineSet
Validated: 1
Ligature2: "'liga' Standard Ligatures in Latin lookup 0 subtable" o hyphen k
Ligature2: "'liga' Standard Ligatures in Latin lookup 0 subtable" o hyphen K
Ligature2: "'liga' Standard Ligatures in Latin lookup 0 subtable" O hyphen k
Ligature2: "'liga' Standard Ligatures in Latin lookup 0 subtable" O hyphen K
EndChar

StartChar: OK.ss01
Encoding: 65569 -1 279
Width: 1395
GlyphClass: 1
Flags: W
LayerCount: 2
Fore
SplineSet
310 -10 m 0
 160 -10 50 100 50 250 c 0
 50 400 160 510 310 510 c 0
 445 510 547 421 567 295 c 1
 845 295 l 1
 845 500 l 1
 945 500 l 1
 945 339 l 1
 1190 500 l 1
 1360 500 l 1
 1096 326 l 1
 1356 0 l 1
 1234 0 l 1
 1015 273 l 1
 945 227 l 1
 945 0 l 1
 845 0 l 1
 845 205 l 1
 567 205 l 1
 547 79 445 -10 310 -10 c 0
310 415 m 0
 220 415 155 345 155 250 c 0
 155 155 220 85 310 85 c 0
 400 85 465 155 465 250 c 0
 465 345 400 415 310 415 c 0
EndSplineSet
Validated: 1
EndChar

StartChar: OK.ss02
Encoding: 65570 -1 280
Width: 1402
GlyphClass: 1
Flags: W
LayerCount: 2
Fore
SplineSet
310 -10 m 0
 160 -10 50 100 50 250 c 0
 50 400 160 510 310 510 c 0
 445 510 547 421 567 295 c 1
 845 295 l 1
 845 500 l 1
 945 500 l 1
 945 295 l 1
 1069 295 l 1
 1234 500 l 1
 1356 500 l 1
 1157 251 l 1
 1367 0 l 1
 1243 0 l 1
 1070 205 l 1
 945 205 l 1
 945 0 l 1
 845 0 l 1
 845 205 l 1
 567 205 l 1
 547 79 445 -10 310 -10 c 0
310 415 m 0
 220 415 155 345 155 250 c 0
 155 155 220 85 310 85 c 0
 400 85 465 155 465 250 c 0
 465 345 400 415 310 415 c 0
EndSplineSet
Validated: 1
EndChar

StartChar: acute
Encoding: 180 180 281
Width: 620
GlyphClass: 1
Flags: W
LayerCount: 2
Fore
SplineSet
192 645 m 1
 391 735 l 1
 428 642 l 1
 217 577 l 1
 192 645 l 1
EndSplineSet
Validated: 1
EndChar

StartChar: cedilla
Encoding: 184 184 282
Width: 650
GlyphClass: 1
Flags: W
LayerCount: 2
Fore
SplineSet
275 -100 m 1
 275 10 l 1
 375 10 l 1
 375 -100 l 1
 275 -100 l 1
EndSplineSet
Validated: 1
EndChar

StartChar: circumflex
Encoding: 710 710 283
Width: 620
GlyphClass: 1
Flags: W
LayerCount: 2
Fore
SplineSet
159 572 m 1
 129 630 l 1
 253 715 l 1
 326 715 l 1
 450 630 l 1
 420 572 l 1
 290 627 l 1
 159 572 l 1
EndSplineSet
Validated: 1
EndChar

StartChar: caron
Encoding: 711 711 284
Width: 620
GlyphClass: 1
Flags: W
LayerCount: 2
Fore
SplineSet
253 577 m 1
 129 662 l 1
 159 720 l 1
 290 665 l 1
 420 720 l 1
 450 662 l 1
 326 577 l 1
 253 577 l 1
EndSplineSet
Validated: 1
EndChar

StartChar: dieresis
Encoding: 168 168 285
Width: 620
GlyphClass: 1
Flags: W
LayerCount: 2
Fore
SplineSet
355 625 m 0
 355 661 379 685 415 685 c 0
 451 685 475 661 475 625 c 0
 475 589 451 565 415 565 c 0
 379 565 355 589 355 625 c 0
145 625 m 0
 145 661 169 685 205 685 c 0
 241 685 265 661 265 625 c 0
 265 589 241 565 205 565 c 0
 169 565 145 589 145 625 c 0
EndSplineSet
Validated: 1
EndChar

StartChar: dotaccent
Encoding: 729 729 286
Width: 620
GlyphClass: 1
Flags: W
LayerCount: 2
Fore
SplineSet
250 625 m 0
 250 661 274 685 310 685 c 0
 346 685 370 661 370 625 c 0
 370 589 346 565 310 565 c 0
 274 565 250 589 250 625 c 0
EndSplineSet
Validated: 1
EndChar

StartChar: grave
Encoding: 96 96 287
Width: 620
GlyphClass: 1
Flags: W
LayerCount: 2
Fore
SplineSet
192 642 m 1
 229 735 l 1
 428 645 l 1
 403 577 l 1
 192 642 l 1
EndSplineSet
Validated: 1
EndChar

StartChar: macron
Encoding: 175 175 288
Width: 580
GlyphClass: 1
Flags: W
LayerCount: 2
Fore
SplineSet
140 580 m 1
 140 670 l 1
 440 670 l 1
 440 580 l 1
 140 580 l 1
EndSplineSet
Validated: 1
EndChar

StartChar: ring
Encoding: 730 730 289
Width: 620
GlyphClass: 1
Flags: W
LayerCount: 2
Fore
SplineSet
225 625 m 0
 225 674 261 710 310 710 c 0
 359 710 395 674 395 625 c 0
 395 576 359 540 310 540 c 0
 261 540 225 576 225 625 c 0
EndSplineSet
Validated: 1
EndChar

StartChar: asciitilde
Encoding: 126 126 290
Width: 625
Flags: HW
LayerCount: 2
Fore
SplineSet
75 500 m 1
 565 500 l 1
 565 410 l 1
 175 410 l 1
 175 295 l 1
 465 295 l 1
 465 205 l 1
 175 205 l 1
 175 90 l 1
 565 90 l 1
 565 0 l 1
 75 0 l 1
 75 500 l 1
EndSplineSet
Validated: 1
EndChar

StartChar: uni007F
Encoding: 127 127 291
Width: 625
Flags: HW
LayerCount: 2
Fore
SplineSet
570 495 m 1
 570 5 l 1
 480 5 l 1
 480 395 l 1
 365 395 l 1
 365 105 l 1
 275 105 l 1
 275 395 l 1
 160 395 l 1
 160 5 l 1
 70 5 l 1
 70 495 l 1
 570 495 l 1
EndSplineSet
Validated: 1
EndChar

StartChar: uni0080
Encoding: 128 128 292
Width: 625
Flags: HW
LayerCount: 2
Fore
SplineSet
565 0 m 1
 75 0 l 1
 75 90 l 1
 465 90 l 1
 465 205 l 1
 175 205 l 1
 175 295 l 1
 465 295 l 1
 465 410 l 1
 75 410 l 1
 75 500 l 1
 565 500 l 1
 565 0 l 1
EndSplineSet
Validated: 1
EndChar

StartChar: uni0081
Encoding: 129 129 293
Width: 625
Flags: HW
LayerCount: 2
Fore
SplineSet
70 5 m 1
 70 495 l 1
 160 495 l 1
 160 105 l 1
 275 105 l 1
 275 395 l 1
 365 395 l 1
 365 105 l 1
 480 105 l 1
 480 495 l 1
 570 495 l 1
 570 5 l 1
 70 5 l 1
EndSplineSet
Validated: 1
EndChar

StartChar: uni0082
Encoding: 130 130 294
Width: 617
Flags: HW
LayerCount: 2
Fore
SplineSet
310 -10 m 0
 160 -10 50 100 50 250 c 0
 50 400 160 510 310 510 c 0
 445 510 547 422 567 295 c 1
 460 295 l 1
 443 366 385 415 310 415 c 0
 220 415 155 345 155 250 c 0
 155 155 220 85 310 85 c 0
 385 85 443 134 460 205 c 1
 567 205 l 1
 547 78 445 -10 310 -10 c 0
EndSplineSet
Validated: 1
EndChar

StartChar: uni0083
Encoding: 131 131 295
Width: 617
Flags: HW
LayerCount: 2
Fore
SplineSet
48.5 248.5 m 0
 48.5 398.5 158.5 508.5 308.5 508.5 c 0
 458.5 508.5 568.5 398.5 568.5 248.5 c 0
 568.5 113.5 480.5 11.5 353.5 -8.5 c 1
 353.5 98.5 l 1
 424.5 115.5 473.5 173.5 473.5 248.5 c 0
 473.5 338.5 403.5 403.5 308.5 403.5 c 0
 213.5 403.5 143.5 338.5 143.5 248.5 c 0
 143.5 173.5 192.5 115.5 263.5 98.5 c 1
 263.5 -8.5 l 1
 136.5 11.5 48.5 113.5 48.5 248.5 c 0
EndSplineSet
Validated: 1
EndChar

StartChar: uni0084
Encoding: 132 132 296
Width: 617
Flags: HW
LayerCount: 2
Fore
SplineSet
307 510 m 0
 457 510 567 400 567 250 c 0
 567 100 457 -10 307 -10 c 0
 172 -10 70 78 50 205 c 1
 157 205 l 1
 174 134 232 85 307 85 c 0
 397 85 462 155 462 250 c 0
 462 345 397 415 307 415 c 0
 232 415 174 366 157 295 c 1
 50 295 l 1
 70 422 172 510 307 510 c 0
EndSplineSet
Validated: 1
EndChar

StartChar: uni0085
Encoding: 133 133 297
Width: 617
Flags: HW
LayerCount: 2
Fore
SplineSet
568.5 251.5 m 0
 568.5 101.5 458.5 -8.5 308.5 -8.5 c 0
 158.5 -8.5 48.5 101.5 48.5 251.5 c 0
 48.5 386.5 136.5 488.5 263.5 508.5 c 1
 263.5 401.5 l 1
 192.5 384.5 143.5 326.5 143.5 251.5 c 0
 143.5 161.5 213.5 96.5 308.5 96.5 c 0
 403.5 96.5 473.5 161.5 473.5 251.5 c 0
 473.5 326.5 424.5 384.5 353.5 401.5 c 1
 353.5 508.5 l 1
 480.5 488.5 568.5 386.5 568.5 251.5 c 0
EndSplineSet
Validated: 1
EndChar

StartChar: uni008A
Encoding: 138 138 298
Width: 620
Flags: HW
LayerCount: 2
Fore
SplineSet
50 250 m 0
 50 400 160 510 310 510 c 0
 460 510 570 400 570 250 c 0
 570 100 460 -10 310 -10 c 0
 160 -10 50 100 50 250 c 0
155 250 m 0
 155 155 220 85 310 85 c 0
 400 85 465 155 465 250 c 0
 465 345 400 415 310 415 c 0
 220 415 155 345 155 250 c 0
EndSplineSet
Validated: 1
EndChar

StartChar: uni008B
Encoding: 139 139 299
Width: 620
Flags: HW
LayerCount: 2
Fore
SplineSet
50 250 m 0
 50 400 160 510 310 510 c 0
 460 510 570 400 570 250 c 0
 570 100 460 -10 310 -10 c 0
 160 -10 50 100 50 250 c 0
155 250 m 0
 155 155 220 85 310 85 c 0
 400 85 465 155 465 250 c 0
 465 345 400 415 310 415 c 0
 220 415 155 345 155 250 c 0
EndSplineSet
Validated: 1
EndChar

StartChar: uni008C
Encoding: 140 140 300
Width: 620
Flags: HW
LayerCount: 2
Fore
SplineSet
50 250 m 0
 50 400 160 510 310 510 c 0
 460 510 570 400 570 250 c 0
 570 100 460 -10 310 -10 c 0
 160 -10 50 100 50 250 c 0
155 250 m 0
 155 155 220 85 310 85 c 0
 400 85 465 155 465 250 c 0
 465 345 400 415 310 415 c 0
 220 415 155 345 155 250 c 0
EndSplineSet
Validated: 1
EndChar

StartChar: uni008D
Encoding: 141 141 301
Width: 620
Flags: HW
LayerCount: 2
Fore
SplineSet
50 250 m 0
 50 400 160 510 310 510 c 0
 460 510 570 400 570 250 c 0
 570 100 460 -10 310 -10 c 0
 160 -10 50 100 50 250 c 0
155 250 m 0
 155 155 220 85 310 85 c 0
 400 85 465 155 465 250 c 0
 465 345 400 415 310 415 c 0
 220 415 155 345 155 250 c 0
EndSplineSet
Validated: 1
EndChar

StartChar: uni008E
Encoding: 142 142 302
Width: 620
Flags: HW
LayerCount: 2
Fore
SplineSet
50 250 m 0
 50 400 160 510 310 510 c 0
 460 510 570 400 570 250 c 0
 570 100 460 -10 310 -10 c 0
 160 -10 50 100 50 250 c 0
155 250 m 0
 155 155 220 85 310 85 c 0
 400 85 465 155 465 250 c 0
 465 345 400 415 310 415 c 0
 220 415 155 345 155 250 c 0
EndSplineSet
Validated: 1
EndChar
